<?xml version="1.0" standalone="no"?>
<!DOCTYPE svg PUBLIC "-//W3C//DTD SVG 20010904//EN"
 "http://www.w3.org/TR/2001/REC-SVG-20010904/DTD/svg10.dtd">
<svg version="1.0" xmlns="http://www.w3.org/2000/svg"
 width="820.002649pt" height="922.000000pt" viewBox="0 0 820.002649 922.000000"
 preserveAspectRatio="xMidYMid meet">
<metadata>
Created by potrace 1.16, written by Peter Selinger 2001-2019
</metadata>
<g transform="translate(0.002649,922.000000) scale(0.100000,-0.100000)"
fill="#000000" stroke="none">
<path d="M0 4610 l0 -4610 1694 0 1694 0 4 25 c4 17 1 25 -8 25 -8 0 -14 6
-14 13 0 8 -4 7 -11 -3 -9 -12 -10 -11 -6 8 3 12 1 20 -3 17 -5 -3 -11 -1 -15
5 -3 5 -17 10 -31 10 -21 0 -24 5 -24 35 0 36 0 36 -35 29 -32 -6 -35 -4 -35
18 0 16 -9 29 -24 38 -14 7 -22 18 -19 26 3 8 0 14 -6 14 -6 0 -11 17 -11 40
0 38 -2 40 -29 40 -16 0 -31 -6 -34 -12 -2 -7 -8 -1 -12 15 -4 15 -13 27 -21
27 -13 0 -19 13 -15 34 1 5 -5 6 -14 3 -8 -4 -26 -2 -40 3 -22 9 -25 15 -25
65 l0 55 55 0 c49 0 55 2 55 21 0 19 -5 20 -72 18 l-73 -2 -3 60 -3 60 -37 -1
c-31 -1 -38 3 -40 22 -3 16 -10 22 -28 22 -21 0 -24 5 -24 35 l0 35 -67 -3
c-58 -2 -68 1 -71 16 -2 10 3 17 12 17 9 0 16 5 16 10 0 6 15 10 33 11 17 0
41 4 52 9 17 7 18 9 4 15 -22 9 -12 45 12 45 11 0 19 7 19 15 0 9 6 12 15 9 8
-4 15 -13 15 -21 0 -11 4 -13 13 -6 6 6 31 8 55 7 38 -3 42 -2 42 20 0 22 -3
23 -69 20 l-68 -2 2 29 c2 28 1 29 -41 29 -37 0 -44 3 -44 20 0 12 7 20 16 20
10 0 14 7 12 23 -4 30 -65 38 -85 11 -12 -16 -13 -15 -13 12 0 17 -5 35 -12
42 -17 17 -8 22 51 29 28 3 54 10 57 14 3 5 -1 7 -8 5 -7 -3 -39 -7 -70 -10
l-57 -6 10 32 c5 17 14 35 20 39 8 4 3 8 -12 11 -20 2 -25 10 -27 41 -2 23 -8
37 -17 37 -7 0 -17 12 -23 28 -11 31 2 50 31 44 9 -2 17 2 17 10 0 10 2 10 8
1 5 -9 24 -11 58 -7 47 6 50 8 50 35 0 28 -1 29 -52 29 -44 0 -52 3 -49 18 2
9 4 20 4 25 2 13 42 7 47 -8 5 -12 25 -15 95 -15 l89 0 0 40 c0 38 2 40 31 40
26 0 29 -3 24 -20 -3 -11 -3 -29 0 -40 5 -17 15 -20 61 -20 l54 0 0 -39 c0
-40 11 -51 51 -51 16 0 19 -7 19 -40 l0 -40 65 0 65 0 0 -30 c0 -26 4 -30 28
-30 26 0 28 -3 24 -31 -4 -29 -3 -31 19 -24 37 12 54 11 51 -3 -1 -8 15 -12
57 -12 62 0 77 -9 83 -50 3 -22 9 -25 46 -28 41 -3 42 -4 42 -37 0 -34 0 -34
53 -37 l52 -3 3 -52 3 -53 -80 0 c-68 0 -82 -3 -90 -19 -6 -10 -7 -21 -4 -25
3 -3 75 -6 158 -6 123 0 155 -3 165 -15 11 -14 7 -19 -12 -16 -5 0 -8 -3 -8
-9 0 -14 23 -12 39 3 11 10 13 10 7 0 -5 -10 4 -13 33 -13 28 0 41 -4 41 -14
0 -14 21 -26 47 -26 10 0 14 6 11 18 -4 15 2 19 35 21 22 1 44 4 49 7 4 3 17
0 28 -6 16 -8 28 -8 50 4 29 14 30 14 36 -10 3 -13 4 -33 1 -44 -4 -17 0 -20
24 -20 26 0 29 3 29 34 0 40 11 50 45 42 18 -5 25 -14 27 -39 2 -26 8 -33 29
-35 25 -3 27 0 33 52 5 39 12 56 22 56 8 0 14 -4 14 -10 0 -5 -4 -10 -10 -10
-5 0 -10 -7 -10 -16 0 -11 5 -14 16 -10 9 3 25 6 36 6 18 0 20 5 16 50 -2 29
1 50 7 50 6 0 11 -21 13 -47 1 -26 4 -48 6 -50 2 -2 33 -4 69 -5 62 -2 78 -11
33 -20 -11 -1 -21 -9 -22 -16 -1 -7 0 -8 3 -2 2 5 12 10 21 10 15 0 15 -2 2
-10 -12 -8 -11 -10 7 -10 16 0 25 8 29 26 7 25 9 26 60 21 51 -5 54 -4 54 16
0 36 -12 44 -63 43 l-48 -2 3 36 c4 32 7 35 39 38 33 3 35 5 31 34 -4 23 -1
29 9 26 9 -3 17 -28 21 -63 4 -32 10 -60 13 -63 2 -3 74 -7 160 -10 l155 -4 0
26 c0 26 0 26 -85 26 l-85 0 0 55 0 55 56 0 c54 0 55 1 54 28 -4 50 -2 52 44
52 40 0 43 2 39 24 -6 29 7 37 61 44 23 2 42 7 43 11 2 3 25 4 51 3 l49 -4 -5
31 c-4 29 -2 31 27 31 28 0 31 3 31 30 0 29 1 29 63 32 l62 3 0 42 c0 43 0 43
38 43 37 0 37 0 37 40 l0 40 54 0 c59 0 75 15 56 51 -10 17 -7 19 30 19 22 0
39 -3 39 -7 -5 -32 3 -61 19 -65 20 -5 157 7 190 17 16 6 22 3 22 -9 0 -9 8
-17 18 -18 9 -1 -14 -4 -53 -7 -66 -6 -70 -7 -70 -31 0 -25 0 -25 97 -25 79 0
101 3 115 18 9 9 12 17 6 17 -6 0 -9 9 -6 20 8 29 47 26 61 -5 6 -14 16 -25
21 -25 6 0 8 -7 4 -15 -3 -9 -2 -15 3 -14 26 5 45 -2 37 -13 -4 -7 -6 -24 -5
-38 l3 -25 -19 21 c-17 20 -19 20 -30 5 -9 -13 -11 -10 -11 20 -1 36 -13 49
-46 49 -7 0 -18 -14 -24 -31 -10 -29 -12 -30 -27 -14 -9 9 -19 13 -22 10 -7
-7 31 -34 40 -29 5 3 8 -2 8 -10 0 -12 -10 -16 -40 -16 -37 0 -40 -2 -40 -29
0 -15 -3 -49 -6 -75 l-7 -46 -56 -1 c-42 -1 -49 -3 -26 -8 19 -4 31 -13 33
-26 6 -31 12 -31 12 -1 0 28 20 32 28 6 3 -8 0 -10 -8 -5 -9 6 -12 4 -8 -7 10
-25 -23 -43 -69 -40 -43 3 -43 3 -43 -32 0 -19 5 -38 11 -42 8 -4 9 0 4 15 -6
19 -3 21 27 20 23 -1 26 -3 11 -6 -15 -3 -23 -12 -23 -24 0 -10 -6 -19 -12
-19 -9 0 -8 -4 2 -10 11 -7 2 -10 -32 -10 -43 0 -48 -2 -48 -23 0 -17 -6 -23
-22 -23 -99 -1 -119 -4 -116 -20 2 -13 20 -16 108 -18 99 -1 105 -2 102 -21
-2 -11 -8 -21 -13 -23 -26 -10 -3 -22 40 -22 49 0 50 -1 49 -30 -1 -24 -7 -32
-26 -37 -15 -3 -27 -1 -33 8 -6 10 -9 11 -9 2 0 -8 -13 -13 -31 -13 -28 0 -31
-3 -25 -24 7 -27 -15 -51 -39 -42 -8 3 -15 1 -15 -4 0 -6 -17 -10 -38 -10 -32
0 -38 -3 -38 -22 0 -13 -1 -47 -2 -75 l-2 -53 -70 0 c-56 0 -70 -3 -70 -15 0
-11 12 -15 45 -15 33 0 45 -4 45 -15 0 -9 9 -15 23 -14 21 0 21 1 2 9 -19 8
-19 9 1 9 27 1 35 -17 27 -63 -5 -30 -10 -35 -37 -38 -26 -2 -32 -8 -37 -33
-5 -29 -5 -29 -13 -7 -10 31 -41 25 -41 -8 0 -20 -7 -27 -35 -36 -27 -9 -36
-18 -40 -40 -3 -15 -8 -27 -12 -26 -29 7 -38 -1 -44 -39 l-7 -42 -13 29 -12
29 -1 -32 c-1 -27 -6 -32 -31 -38 -23 -5 -32 -14 -36 -34 -5 -24 -10 -26 -42
-24 -29 2 -33 1 -17 -6 18 -8 16 -10 -10 -10 -23 -1 -26 -4 -15 -11 12 -7 12
-12 2 -22 -6 -6 -12 -8 -12 -4 0 5 -7 3 -15 -4 -8 -7 -15 -23 -15 -36 l0 -24
1510 0 1510 0 0 1129 c0 994 -2 1130 -15 1135 -8 3 -22 3 -30 0 -8 -3 -24 5
-38 20 -20 21 -33 25 -93 28 -63 3 -69 5 -72 26 -3 21 0 22 67 22 39 0 79 -4
89 -9 9 -5 25 -12 36 -15 10 -4 16 -12 13 -19 -3 -7 4 -12 19 -12 l24 0 0 358
c0 203 -4 357 -9 357 -17 0 -22 34 -7 46 14 10 16 316 16 3083 l0 3071 -4100
0 -4100 0 0 -4610z m7245 4520 c14 -5 25 -17 25 -25 0 -9 8 -18 18 -22 42 -15
52 -34 52 -104 0 -53 4 -72 19 -86 27 -27 30 -49 32 -268 1 -127 6 -205 13
-214 7 -9 12 -92 15 -226 3 -223 -1 -255 -39 -255 -19 0 -20 -8 -20 -161 0
-165 -7 -199 -39 -199 -11 0 -22 -7 -25 -16 -3 -9 -6 -127 -6 -262 0 -136 -4
-252 -8 -258 -4 -6 -20 -16 -37 -22 -16 -6 -23 -11 -14 -11 15 -1 17 -14 11
-69 -2 -10 -28 -13 -119 -10 l-118 3 -3 28 -3 28 55 -3 c36 -3 56 0 56 7 0 18
-23 35 -47 35 -19 0 -23 5 -23 30 l0 30 -62 1 c-35 0 -57 3 -50 6 6 2 12 16
12 29 0 22 4 24 44 24 26 0 48 6 56 15 9 10 9 15 1 15 -6 0 -11 -5 -11 -11 0
-8 -19 -10 -65 -6 -61 6 -98 -5 -55 -16 11 -3 20 -11 19 -19 0 -10 -2 -10 -6
0 -3 7 -22 12 -46 12 l-42 0 2 52 c1 54 -15 86 -35 66 -7 -7 -22 -7 -49 0 -25
6 -30 10 -15 11 30 1 28 17 -3 17 -14 0 -25 -5 -25 -12 0 -6 -7 -14 -15 -18
-11 -4 -15 2 -15 22 l0 27 117 -3 c82 -2 113 1 103 8 -13 8 -12 10 5 10 14 0
16 3 7 12 -8 8 -15 8 -27 -2 -13 -11 -14 -10 -9 4 4 12 -3 20 -27 31 l-34 14
40 2 c22 1 -7 7 -65 14 -128 15 -160 23 -160 41 0 7 6 11 14 8 8 -3 17 -1 20
5 4 6 13 8 21 4 18 -6 20 13 3 21 -9 3 -7 9 6 20 19 16 19 16 -6 16 -21 0 -25
-4 -21 -20 4 -15 0 -20 -15 -20 -11 0 -22 8 -25 20 -4 17 -14 20 -57 20 l-52
0 4 45 c3 46 -3 52 -50 46 -7 -1 -15 5 -18 14 -4 10 -19 15 -45 15 -32 0 -39
3 -39 20 0 21 16 28 22 9 2 -7 42 -13 98 -17 88 -5 94 -4 81 11 -12 15 -11 17
10 18 18 1 15 4 -11 9 -19 4 -27 8 -17 9 9 0 17 6 17 13 0 9 3 9 12 0 7 -7 34
-12 60 -12 31 0 48 -4 49 -12 0 -10 2 -10 6 0 2 6 16 12 30 12 15 0 23 5 21
13 -3 8 -34 13 -96 15 -100 3 -105 7 -82 66 9 25 8 26 -30 26 -25 0 -40 -5
-40 -12 0 -10 -2 -10 -9 0 -6 10 -27 13 -72 11 -63 -3 -64 -2 -67 24 -3 23 -8
27 -38 27 -31 0 -34 2 -34 30 0 29 -2 30 -45 30 -25 0 -48 0 -52 -1 -7 0 -26
42 -21 47 2 1 55 6 118 10 63 4 108 9 100 12 -8 3 -19 11 -23 19 -5 7 -12 11
-18 8 -5 -4 -9 -2 -9 4 0 5 8 14 18 20 15 9 15 10 -5 8 -12 0 -21 -4 -21 -7 5
-51 -28 -73 -34 -22 -3 25 -6 27 -40 24 -35 -3 -38 -1 -39 25 -4 84 6 108 45
120 34 11 35 10 39 -21 l4 -31 1 35 c2 35 2 35 42 32 39 -4 40 -4 41 29 1 19
1 37 0 42 0 4 15 7 34 7 28 0 35 4 35 19 0 11 5 23 12 27 8 5 9 -2 5 -23 -5
-28 -4 -29 24 -25 34 5 50 22 20 22 -12 0 -21 4 -21 9 0 6 12 6 32 0 18 -5 40
-6 50 -3 13 4 16 1 12 -9 -4 -11 1 -13 20 -10 17 4 26 12 26 23 0 16 -8 18
-50 16 -27 -1 -50 2 -50 7 0 6 43 8 108 5 59 -3 93 -3 76 -1 -25 3 -31 8 -27
23 3 12 -2 20 -16 25 -14 4 -24 18 -28 36 -4 21 -11 29 -27 29 -12 0 -26 -4
-32 -10 -6 -6 -10 -3 -11 9 -1 14 4 17 17 14 10 -3 31 3 46 14 16 10 25 12 21
6 -6 -10 1 -13 27 -13 29 0 36 4 36 20 0 14 7 20 24 20 25 0 36 16 36 55 0 23
1 23 93 18 64 -3 88 -1 77 6 -11 8 -12 16 -4 38 8 25 14 28 62 31 43 2 51 6
43 16 -20 23 -3 42 32 38 31 -4 33 -2 35 32 l3 36 -44 0 c-40 0 -43 2 -45 30
-2 30 -2 30 48 30 l50 0 0 45 0 45 45 0 c25 0 44 3 44 8 -1 4 -1 24 0 45 1 32
4 37 25 37 15 0 26 -7 29 -17 4 -14 5 -12 6 5 1 18 -4 22 -29 22 -16 0 -29 3
-29 8 3 18 -2 30 -15 35 -10 4 -13 1 -10 -7 4 -10 -11 -16 -53 -21 -32 -5 -63
-8 -70 -6 -7 1 -13 -14 -15 -36 -3 -35 -5 -38 -38 -41 -19 -2 -39 -10 -43 -18
-11 -19 -25 -18 -30 4 -3 9 -5 2 -6 -15 -1 -34 -5 -36 -83 -36 -10 0 -18 -4
-18 -8 0 -8 15 -13 33 -10 4 0 7 -11 7 -26 l0 -28 -85 4 c-62 2 -85 0 -85 -9
0 -8 9 -10 25 -6 23 6 25 3 25 -24 0 -22 -5 -30 -17 -31 -31 -2 29 -17 70 -18
36 -1 38 -3 35 -28 -2 -23 -8 -29 -35 -31 -30 -3 -33 -1 -34 25 0 15 -3 22 -6
16 -2 -7 -11 -13 -19 -13 -8 0 -14 -4 -14 -10 0 -6 -47 -11 -117 -12 -65 -1
-97 -3 -72 -5 40 -3 46 -7 42 -22 -5 -21 -41 -31 -109 -31 -40 0 -44 -2 -44
-25 0 -23 -4 -25 -47 -26 -27 -1 -52 -1 -57 0 -5 1 -6 -12 -3 -29 6 -26 4 -30
-16 -31 -12 0 -16 -3 -9 -6 6 -2 12 -12 12 -21 0 -15 -2 -15 -10 -2 -6 10 -10
11 -10 3 0 -8 -14 -13 -34 -13 -32 0 -35 -3 -41 -38 -5 -30 -11 -38 -28 -39
-44 -4 -66 -14 -72 -33 -3 -11 -15 -20 -25 -20 -32 0 -50 -12 -50 -32 0 -23
-26 -47 -52 -48 -14 0 -18 -8 -18 -34 0 -29 -5 -36 -29 -44 -16 -6 -32 -8 -35
-5 -3 4 -6 -5 -6 -18 0 -52 -11 -69 -51 -79 -34 -10 -39 -14 -39 -41 l0 -30
-52 6 c-29 3 -65 7 -80 8 -16 1 -28 6 -28 12 0 5 -5 3 -10 -5 -8 -12 -10 -11
-10 6 0 24 -18 34 -61 34 -24 0 -29 4 -29 25 0 15 -6 25 -14 25 -8 0 -1 14 18
35 18 19 37 35 43 35 6 0 14 11 17 25 4 14 10 25 14 25 4 0 25 16 47 36 22 19
52 38 66 41 15 3 36 18 48 34 12 16 28 29 36 29 8 0 15 9 15 19 0 12 18 31 48
49 26 17 56 39 67 49 11 10 34 25 51 32 17 7 46 28 65 47 18 19 38 34 45 34 7
0 15 8 19 18 4 13 79 68 100 72 2 1 20 17 40 36 20 19 40 32 45 29 4 -3 10 2
14 10 3 8 18 21 33 28 15 6 37 21 48 32 11 11 32 26 48 33 15 6 27 16 27 22 0
5 9 10 20 10 11 0 20 5 20 10 0 6 8 14 18 17 9 4 26 16 37 26 11 11 36 30 57
43 20 13 39 28 43 34 3 5 16 10 28 10 12 1 38 14 57 30 19 17 39 30 45 30 5 0
16 9 22 19 7 11 27 22 45 24 52 8 336 -3 363 -13z m-5511 4 c9 -3 16 -12 16
-20 0 -8 9 -14 19 -14 30 0 51 -11 51 -27 0 -8 14 -19 30 -24 17 -6 30 -15 30
-21 0 -5 4 -7 9 -3 5 3 13 1 16 -5 4 -6 27 -20 51 -32 25 -11 49 -29 55 -40 6
-11 24 -24 40 -30 16 -5 34 -19 40 -29 5 -10 17 -19 25 -19 25 0 74 -29 74
-44 0 -12 25 -32 93 -72 10 -6 25 -21 33 -32 8 -11 24 -22 37 -24 14 -2 23
-11 25 -26 3 -18 8 -23 23 -19 10 3 19 1 19 -4 0 -5 6 -9 14 -9 8 0 16 -7 20
-15 3 -8 17 -20 32 -25 14 -6 28 -18 31 -29 3 -11 19 -21 41 -27 23 -6 41 -17
47 -31 5 -12 20 -25 33 -28 13 -3 42 -24 65 -46 33 -31 39 -42 28 -49 -11 -6
-7 -9 15 -12 18 -2 33 -11 39 -26 5 -12 25 -27 45 -34 19 -6 40 -18 47 -27 7
-9 13 -13 13 -9 0 12 50 -38 50 -51 0 -6 4 -10 9 -9 5 2 30 -18 55 -44 27 -29
54 -48 68 -49 19 -1 17 -3 -9 -10 -18 -5 -35 -18 -38 -29 -5 -15 -15 -20 -45
-20 -30 0 -39 -4 -45 -22 -4 -13 -7 -26 -6 -30 1 -5 -35 -8 -79 -8 -72 0 -80
2 -80 19 0 40 -11 51 -51 51 -37 0 -39 2 -41 33 0 17 -1 38 -1 45 1 6 -10 12
-24 12 -13 0 -22 4 -19 9 3 4 -6 13 -19 19 -27 12 -32 28 -13 34 23 8 -16 35
-44 32 -24 -2 -27 1 -30 34 -3 32 -7 37 -30 40 -23 3 -28 -1 -28 -17 0 -16 6
-21 25 -21 14 0 25 -6 25 -13 0 -9 -9 -12 -29 -9 -27 4 -30 8 -33 45 -2 32 -8
43 -23 46 -11 2 -25 10 -31 19 -6 8 -18 13 -27 9 -16 -6 -19 -2 -31 56 -5 22
-12 27 -36 28 -17 1 -38 2 -47 3 -10 1 -20 -9 -24 -24 -6 -23 -7 -22 -8 8 -1
17 -2 35 -3 39 -2 4 11 11 27 14 l30 7 -27 1 c-18 1 -28 7 -28 16 0 10 -11 15
-35 15 -34 0 -39 6 -36 42 2 13 -12 17 -83 23 -80 7 -85 9 -75 26 6 12 21 19
42 19 26 1 29 2 15 11 -10 5 -24 9 -30 8 -7 -1 -54 -1 -104 0 -91 1 -91 1 -91
27 0 17 4 24 13 20 8 -3 11 0 7 10 -3 7 -14 14 -24 14 -19 0 -25 11 -13 22 3
4 19 2 35 -2 27 -8 29 -6 29 17 l0 25 -92 -3 -93 -3 0 37 c0 34 -3 38 -25 36
-47 -3 -55 0 -42 13 7 7 12 20 12 30 0 14 -11 18 -57 20 -56 3 -58 4 -58 30 1
25 -3 28 -52 34 -46 5 -54 10 -59 31 -5 18 -12 23 -25 20 -11 -3 -17 -1 -13 4
3 5 19 9 36 9 40 0 34 6 -14 13 l-38 6 0 -45 c0 -24 4 -44 8 -44 5 0 7 -14 4
-31 -4 -25 -1 -31 19 -36 22 -6 22 -7 3 -14 -18 -7 -17 -8 4 -8 30 -1 62 -35
62 -66 0 -22 4 -25 40 -25 38 0 40 -2 40 -30 0 -28 -2 -30 -40 -30 -31 0 -38
-3 -34 -15 4 -8 10 -12 15 -9 5 3 9 2 8 -3 -6 -36 20 -62 73 -70 37 -6 64 -32
73 -72 6 -30 8 -31 63 -32 31 -1 63 -1 71 0 7 2 10 -2 6 -8 -3 -7 0 -8 9 -5
13 5 16 -1 16 -28 0 -33 2 -34 30 -30 18 3 30 0 30 -7 0 -6 11 -11 25 -11 14
0 24 -3 24 -7 -3 -20 2 -24 16 -13 10 9 23 9 43 2 16 -6 35 -6 44 -1 12 7 15
3 14 -14 -1 -12 2 -25 7 -28 5 -4 7 -15 4 -25 -4 -17 -6 -17 -12 4 -6 18 -15
22 -50 22 l-42 0 1 -44 c1 -24 -2 -42 -6 -39 -5 2 -8 -3 -8 -11 0 -22 27 -20
33 2 4 13 5 11 6 -5 0 -13 5 -23 11 -23 5 0 9 -6 7 -12 -1 -9 10 -13 32 -13
25 0 35 5 37 18 2 13 -5 17 -29 18 -18 1 -35 1 -39 0 -5 0 -8 5 -8 12 0 9 19
11 71 9 l71 -4 -4 -39 c-3 -37 -2 -39 24 -39 18 0 28 -5 28 -15 0 -8 6 -16 13
-17 6 0 17 -2 22 -3 6 -2 22 -3 38 -4 15 0 27 -5 27 -10 0 -5 -10 -7 -22 -3
-14 3 -19 2 -14 -6 4 -7 32 -12 65 -12 l59 0 6 -35 c4 -20 4 -40 1 -45 -3 -6
-2 -10 4 -10 5 0 12 8 14 18 3 9 5 -2 6 -25 l1 -43 -57 -1 c-32 -1 -73 -2 -90
-3 -24 -1 -33 3 -33 14 0 9 -9 16 -22 17 -13 0 -17 -1 -10 -4 6 -3 12 -9 12
-14 0 -6 -4 -8 -9 -4 -5 3 -12 1 -16 -5 -4 -6 4 -10 19 -10 36 0 51 -31 23
-47 -19 -10 -7 -12 73 -13 120 0 140 -5 140 -36 0 -22 -4 -24 -50 -24 -27 0
-49 -3 -49 -7 1 -5 1 -22 0 -39 -1 -31 -3 -32 -40 -30 -36 2 -40 0 -46 -28 -4
-17 -9 -25 -12 -18 -6 14 -33 16 -33 2 0 -5 -7 -10 -16 -10 -8 0 -12 5 -9 10
4 6 -14 10 -47 9 -29 -1 -45 -3 -36 -6 16 -4 16 -6 0 -24 -9 -10 -29 -19 -44
-19 -18 0 -28 -5 -28 -15 0 -11 -12 -15 -45 -15 -25 0 -45 -4 -45 -10 0 -5 -7
-6 -17 -3 -11 4 -14 3 -9 -5 4 -7 19 -12 34 -13 24 0 25 -1 7 -10 -15 -7 -11
-8 15 -3 26 4 31 3 20 -5 -8 -6 -10 -11 -5 -12 6 -1 -10 -5 -35 -9 -29 -5 8
-8 107 -8 83 -1 154 -6 157 -10 2 -4 -8 -8 -22 -7 -20 0 -27 -5 -26 -17 2 -16
-22 -23 -66 -20 -3 0 -3 -20 -1 -44 l3 -44 -50 0 c-45 0 -50 -3 -56 -25 -5
-18 -13 -25 -31 -25 -14 0 -25 6 -25 13 0 8 -4 7 -10 -3 -6 -8 -8 -26 -5 -40
5 -23 2 -25 -27 -25 -40 -1 -128 -14 -140 -21 -4 -3 -8 -13 -8 -22 -1 -16 -1
-16 -11 1 -5 9 -15 17 -22 17 -7 0 -6 -4 3 -10 13 -8 13 -11 -2 -27 -17 -16
-18 -16 -18 0 0 10 -8 17 -17 17 -15 0 -16 -2 -3 -10 13 -8 12 -10 -3 -10 -12
0 -17 -6 -15 -17 3 -14 18 -16 131 -14 123 2 127 2 127 -18 0 -22 -5 -24 -56
-21 -18 1 -35 -3 -39 -9 -9 -16 -25 -13 -25 4 0 22 -27 18 -33 -5 -4 -15 0
-20 16 -20 14 0 18 -3 10 -8 -6 -4 -14 -19 -18 -34 -7 -28 -29 -43 -48 -31 -7
4 -2 10 13 14 24 7 24 7 3 8 -13 1 -23 7 -23 14 0 8 -3 7 -9 -3 -6 -8 -8 -17
-5 -21 2 -4 0 -10 -6 -14 -5 -3 -10 3 -10 14 0 14 -5 19 -15 15 -10 -4 -15 0
-15 14 0 16 8 22 33 25 31 4 31 4 -5 5 -34 2 -38 -1 -38 -22 0 -24 -16 -36
-52 -36 -17 0 -18 -2 -4 -15 8 -8 31 -15 51 -15 34 0 36 -2 33 -27 -3 -29 -4
-30 -69 -32 -22 0 -38 -5 -35 -10 3 -5 -5 -20 -19 -35 -27 -29 -29 -66 -4 -66
10 0 20 -6 22 -12 3 -8 6 -6 6 5 1 11 9 17 26 17 27 0 30 -6 16 -29 -7 -11
-39 -16 -129 -19 l-120 -4 5 46 c5 42 4 46 -15 46 -12 0 -23 4 -26 8 -3 5 -6
129 -7 275 l-1 267 -29 0 c-15 0 -30 4 -33 8 -3 5 -6 71 -7 148 -2 185 -6 214
-30 214 -33 0 -41 60 -37 268 2 157 6 196 18 205 13 10 15 45 12 229 -3 220 2
258 33 258 12 0 15 15 15 72 0 76 15 108 52 108 10 0 18 5 18 10 0 6 15 19 33
30 29 18 50 20 204 20 94 0 178 -3 187 -6z m16 -347 c0 -15 -6 -23 -17 -23
-10 -1 -27 -5 -38 -9 -18 -7 -18 -6 3 12 12 11 22 25 22 32 0 6 7 11 15 11 9
0 15 -9 15 -23z m117 7 c-3 -3 -12 -4 -19 -1 -8 3 -5 6 6 6 11 1 17 -2 13 -5z
m-130 -64 c3 -13 14 -20 28 -20 18 0 24 -7 27 -30 l5 -30 -88 0 c-49 0 -91 5
-94 10 -4 6 -1 9 7 8 8 -2 14 10 16 34 3 34 6 37 40 41 20 2 41 4 45 5 5 1 11
-7 14 -18z m5203 -15 c0 -34 -1 -35 -40 -35 -38 0 -40 2 -40 29 0 27 4 30 38
34 20 2 38 4 40 5 1 1 2 -14 2 -33z m-580 -210 c0 -19 -2 -35 -4 -35 -2 0 -6
16 -8 35 -2 19 0 35 4 35 4 0 8 -16 8 -35z m-4145 15 c-3 -5 -11 -10 -16 -10
-6 0 -7 5 -4 10 3 6 11 10 16 10 6 0 7 -4 4 -10z m-145 -71 c0 -5 -7 -9 -15
-9 -15 0 -20 12 -9 23 8 8 24 -1 24 -14z m31 -50 c-4 -73 -8 -73 -13 0 -2 36
1 60 7 58 5 -2 8 -28 6 -58z m4396 4 c-3 -10 -5 -4 -5 12 0 17 2 24 5 18 2 -7
2 -21 0 -30z m-391 -80 c-3 -4 -17 -8 -29 -10 -17 -2 -19 -1 -7 7 17 11 47 14
36 3z m-3961 -53 c3 -5 -1 -10 -9 -10 -9 0 -16 5 -16 10 0 6 4 10 9 10 6 0 13
-4 16 -10z m3280 -80 c3 -5 1 -10 -4 -10 -6 0 -11 5 -11 10 0 6 2 10 4 10 3 0
8 -4 11 -10z m-2916 -26 c9 -9 -85 -3 -99 6 -9 6 5 7 40 3 30 -3 57 -7 59 -9z
m3631 -94 c0 -5 -10 -10 -22 -10 -19 0 -20 -2 -8 -11 12 -9 12 -10 1 -7 -22 6
-24 26 -4 31 30 8 33 7 33 -3z m-3593 -22 c-3 -8 -6 -5 -6 6 -1 11 2 17 5 13
3 -3 4 -12 1 -19z m-17 2 c0 -6 -25 -9 -57 -8 l-58 1 45 7 c69 11 70 11 70 0z
m-20 -150 c0 -5 -5 -10 -11 -10 -5 0 -7 5 -4 10 3 6 8 10 11 10 2 0 4 -4 4
-10z m3730 -107 c0 -15 -2 -16 -10 -3 -9 13 -10 13 -10 0 0 -11 -3 -12 -8 -3
-4 6 -32 13 -62 16 -50 3 -49 3 18 5 63 2 72 0 72 -15z m-3788 -25 c-4 -3 -24
-9 -44 -12 -30 -5 -38 -3 -38 9 0 11 8 14 30 10 23 -4 30 -2 30 10 0 13 2 14
14 3 8 -7 11 -16 8 -20z m-325 16 c-3 -3 -12 -4 -19 -1 -8 3 -5 6 6 6 11 1 17
-2 13 -5z m4027 -9 c-4 -8 -10 -15 -14 -15 -5 0 -11 -10 -13 -22 -3 -18 -5
-16 -6 8 -1 33 5 44 25 44 8 0 11 -6 8 -15z m46 -6 c0 -5 -4 -9 -8 -9 -5 0 -9
7 -9 15 0 8 4 12 9 9 4 -3 8 -9 8 -15z m-3993 -5 c-3 -3 -12 -4 -19 -1 -8 3
-5 6 6 6 11 1 17 -2 13 -5z m4188 -19 c6 0 11 -10 13 -23 3 -23 2 -23 -77 -21
-58 2 -82 7 -86 17 -9 24 4 32 56 30 27 0 52 2 56 5 3 4 11 3 17 -1 6 -4 16
-7 21 -7z m-4085 -20 c0 -24 -2 -25 -65 -25 -63 0 -65 1 -65 25 0 24 2 25 65
25 63 0 65 -1 65 -25z m4235 -14 c-11 -11 -37 -14 -80 -11 -30 2 -30 2 -5 10
36 11 96 12 85 1z m-4555 -13 c0 -10 -29 -9 -55 2 -16 7 -12 9 18 8 20 -1 37
-6 37 -10z m23 -25 c-7 -2 -19 -2 -25 0 -7 3 -2 5 12 5 14 0 19 -2 13 -5z
m4530 -20 c-7 -2 -19 -2 -25 0 -7 3 -2 5 12 5 14 0 19 -2 13 -5z m-4966 -650
c-3 -10 -5 -4 -5 12 0 17 2 24 5 18 2 -7 2 -21 0 -30z m633 -13 c0 -28 2 -30
39 -30 44 0 59 -13 40 -36 -17 -21 4 -43 24 -25 20 16 46 4 53 -26 5 -20 11
-23 31 -18 33 8 53 -10 53 -47 0 -17 4 -27 10 -23 6 3 13 -1 16 -9 3 -9 13
-16 21 -16 8 0 25 -13 39 -29 13 -16 35 -32 49 -35 14 -4 23 -11 20 -16 -3 -6
3 -10 14 -10 18 0 21 -6 21 -39 0 -43 -9 -55 -35 -45 -13 5 -16 15 -12 40 3
19 2 34 -4 34 -9 0 -12 -11 -10 -45 1 -18 0 -18 -11 3 -6 12 -22 25 -35 28
-25 7 -28 16 -13 45 9 15 7 19 -6 19 -10 0 -14 -5 -11 -14 5 -11 0 -11 -23 2
-16 9 -25 19 -20 20 6 2 10 15 10 28 0 21 -5 24 -34 24 -19 0 -48 8 -66 18
-26 14 -30 21 -26 45 3 15 1 27 -4 27 -15 0 -23 3 -50 17 -19 10 -26 10 -32 0
-6 -9 -8 -9 -8 1 0 23 -30 45 -61 44 -24 -1 -29 3 -29 24 0 22 -4 24 -50 24
-47 0 -50 2 -50 25 0 24 2 25 75 25 l75 0 0 -30z m4320 5 c0 -24 -3 -25 -54
-25 -48 0 -54 -2 -49 -19 6 -25 -10 -33 -71 -37 -44 -2 -51 -5 -50 -23 1 -19
-21 -28 -58 -22 -4 0 -10 -9 -13 -21 -6 -16 -9 -18 -16 -7 -6 10 -9 4 -9 -18
0 -17 6 -34 13 -36 6 -3 2 -6 -10 -6 -19 -1 -22 5 -25 57 -5 66 -4 69 17 52 8
-7 15 -8 15 -2 0 5 14 15 30 22 24 10 29 17 24 32 -4 15 -1 19 13 17 36 -4 83
13 83 31 0 27 9 30 87 30 71 0 73 -1 73 -25z m545 5 c3 -5 1 -10 -4 -10 -6 0
-11 5 -11 10 0 6 2 10 4 10 3 0 8 -4 11 -10z m-5599 -95 c-3 -8 -2 -15 3 -15
9 0 5 -65 -6 -90 -3 -8 -7 -22 -8 -30 -4 -34 -17 -60 -30 -60 -7 0 -16 -12
-20 -27 -6 -26 -7 -26 -17 -9 -16 29 -17 126 -1 126 7 0 14 -12 14 -27 1 -21
2 -23 6 -8 3 11 9 25 15 32 7 9 -1 13 -29 15 -33 3 -38 7 -41 31 -3 27 -2 27
52 27 31 0 56 5 56 10 0 6 -8 10 -17 10 -16 0 -16 2 -3 11 12 8 8 9 -15 6 -16
-3 -41 -9 -55 -13 -23 -7 -24 -6 -11 9 18 23 116 25 107 2z m5748 -29 c8 -41
-1 -66 -23 -66 -13 0 -13 -2 -2 -9 11 -7 11 -17 0 -60 -11 -43 -11 -56 0 -73
10 -16 10 -19 -1 -13 -10 6 -11 5 0 -6 19 -20 14 -31 -9 -18 -16 8 -20 18 -17
44 2 19 1 33 -2 33 -28 -2 -50 18 -56 51 -3 20 -10 50 -15 66 -4 17 -7 39 -4
50 2 11 4 23 4 28 1 4 27 7 60 7 l59 0 6 -34z m-207 -8 c-3 -8 -6 -5 -6 6 -1
11 2 17 5 13 3 -3 4 -12 1 -19z m-5490 -14 c-3 -3 -12 -4 -19 -1 -8 3 -5 6 6
6 11 1 17 -2 13 -5z m4653 -41 c-1 -37 -1 -37 -17 -18 -15 20 -15 20 -10 -2 3
-14 -1 -24 -10 -27 -23 -9 -23 -9 -23 33 0 36 3 40 28 44 15 2 28 5 30 6 1 0
2 -16 2 -36z m-90 -92 c0 -25 -5 -41 -15 -45 -8 -3 -15 -1 -15 4 0 6 -4 10
-10 10 -5 0 -10 -11 -10 -24 0 -30 -48 -44 -67 -18 -7 8 -13 11 -13 4 0 -6 10
-18 21 -26 28 -19 18 -46 -16 -46 -22 0 -25 -4 -25 -35 0 -36 -13 -47 -24 -20
-10 27 -35 17 -33 -12 2 -22 -3 -29 -20 -31 -17 -3 -23 -10 -23 -28 0 -27 -9
-30 -29 -11 -10 10 -11 9 -6 -5 4 -11 2 -18 -4 -18 -6 0 -11 3 -12 8 0 4 -2
15 -4 25 -2 9 5 22 16 27 12 7 19 21 19 40 0 25 4 30 25 30 18 0 26 7 31 26 5
20 11 25 30 21 21 -4 24 1 30 39 6 43 7 44 45 44 38 0 39 1 39 34 0 35 9 44
48 45 19 1 22 -4 22 -38z m1127 -133 c-3 -8 -6 -5 -6 6 -1 11 2 17 5 13 3 -3
4 -12 1 -19z m-4533 6 c9 -3 16 -17 16 -30 0 -18 5 -24 21 -24 12 0 28 -8 35
-17 15 -21 18 -37 5 -29 -5 3 -11 -1 -15 -9 -7 -18 5 -20 23 -2 10 10 14 9 22
-5 6 -10 17 -18 25 -18 9 0 21 -13 27 -30 8 -20 19 -30 37 -32 20 -2 27 -11
34 -40 5 -21 14 -38 18 -38 5 0 16 -7 24 -15 9 -8 11 -15 5 -15 -6 0 -11 -8
-11 -17 0 -14 3 -13 16 5 17 24 30 29 31 10 2 -25 21 -93 22 -75 1 10 9 17 21
17 17 0 19 -3 10 -19 -8 -17 -6 -20 13 -23 15 -2 23 -11 25 -30 3 -21 9 -27
30 -30 23 -3 27 -8 30 -40 l3 -38 92 1 c71 2 83 3 52 9 -36 6 -24 15 16 11 20
-2 32 60 22 110 -5 28 -4 32 8 23 8 -6 25 -14 37 -17 23 -5 24 -4 20 54 -3 56
-2 59 20 59 13 0 20 4 17 10 -3 6 -1 10 4 10 6 0 11 -13 11 -30 0 -17 3 -29 8
-29 4 1 14 1 22 0 12 -1 13 -3 1 -10 -16 -10 -6 -51 14 -51 16 0 25 22 20 50
-2 11 -1 18 4 16 4 -3 9 -26 10 -53 3 -43 6 -72 10 -95 0 -5 12 -8 25 -8 22 0
24 -4 24 -52 0 -29 1 -108 1 -175 1 -100 4 -123 15 -123 15 0 19 10 31 68 4
20 3 32 -4 32 -6 0 -2 9 9 20 12 12 18 26 14 31 -4 7 3 6 17 -2 23 -12 23 -12
4 -20 -20 -9 -20 -9 0 -6 11 1 21 9 21 17 4 43 5 45 14 25 5 -13 9 25 9 103
l1 122 -30 0 -30 0 0 115 c0 108 1 115 20 115 25 0 26 25 3 40 -14 8 3 10 65
8 79 -3 82 -2 82 20 0 14 6 23 18 23 9 1 -1 5 -23 8 l-40 7 52 5 52 4 7 -82
c5 -72 9 -83 25 -83 17 0 19 -10 20 -117 1 -65 2 -126 2 -135 0 -13 7 -18 25
-18 l25 0 -5 133 c-3 72 -4 138 -1 145 3 8 27 12 69 12 l65 0 -1 -37 c-1 -21
-1 -111 -1 -200 1 -138 3 -163 16 -163 8 0 15 8 16 18 0 14 2 14 9 -3 5 -11 9
-53 9 -92 1 -71 0 -73 -24 -73 -23 0 -25 4 -26 48 0 35 -3 42 -9 27 -15 -34
-12 -85 5 -85 8 0 14 -3 14 -7 -3 -21 2 -346 5 -342 3 3 7 44 15 174 1 6 17
10 36 10 l35 -2 -2 126 c-1 97 -3 113 -8 71 -4 -30 -7 -45 -8 -32 -1 12 -8 32
-14 43 -10 17 -10 23 0 26 6 3 12 9 12 14 0 6 -4 7 -10 4 -5 -3 -10 1 -10 10
0 9 5 13 11 9 7 -4 9 0 5 12 -3 11 -1 33 4 49 l10 30 -4 -28 c-2 -16 0 -25 5
-20 4 4 11 62 14 128 8 161 14 205 28 205 8 0 13 -24 15 -71 3 -78 6 -89 27
-89 11 0 14 16 13 70 -1 39 2 73 6 77 15 16 25 -17 27 -92 2 -109 9 -145 25
-145 10 0 14 -15 15 -52 1 -29 0 -57 -2 -63 -1 -5 -2 -39 -2 -74 1 -42 -2 -60
-8 -50 -5 9 -9 -25 -9 -91 1 -89 3 -102 14 -87 23 30 45 21 52 -23 4 -22 10
-40 15 -40 5 0 9 5 9 10 0 6 10 11 23 11 l22 2 -22 4 c-22 4 -23 8 -23 111 0
76 3 103 11 92 8 -12 9 -10 7 10 -2 20 -8 25 -29 22 -31 -3 -39 15 -39 91 0
44 2 47 25 47 19 0 25 -5 25 -22 0 -12 3 -18 8 -14 4 4 5 50 4 102 -3 62 0 94
7 94 7 0 9 51 4 165 -5 137 -3 165 8 165 8 0 20 -10 28 -21 11 -19 11 -21 -3
-16 -9 4 -16 2 -16 -3 0 -5 12 -12 28 -16 15 -3 34 -8 42 -11 8 -4 19 -5 24
-4 5 1 6 -5 3 -13 -3 -8 -2 -16 3 -18 5 -2 10 -63 11 -135 1 -73 5 -133 10
-133 4 0 15 -3 24 -6 15 -6 16 5 10 141 -8 146 -8 147 13 141 11 -4 23 -2 27
4 3 6 -3 10 -15 10 -12 0 -18 4 -15 11 4 6 13 8 21 5 11 -4 14 5 14 40 0 25 5
55 11 66 10 18 9 20 -5 15 -9 -4 -16 -2 -16 3 0 6 14 10 30 10 30 0 33 -5 33
-54 -1 -16 6 -18 63 -14 l64 4 0 -33 c0 -30 3 -33 30 -33 l30 0 0 -64 c0 -55
3 -64 20 -69 29 -7 29 -77 1 -77 -11 0 -22 6 -24 13 -3 7 -6 5 -6 -5 -1 -13
-9 -18 -31 -18 -30 0 -30 0 -30 -57 0 -32 7 -80 15 -108 11 -36 12 -51 4 -54
-8 -2 -7 -6 2 -12 10 -6 11 -9 2 -9 -7 0 -13 -4 -13 -10 0 -5 16 -10 35 -10
l35 0 0 -60 c0 -33 4 -60 9 -60 5 0 7 -10 4 -22 l-5 -23 21 24 c20 22 21 35
21 193 l0 170 30 -4 30 -5 0 83 c0 46 3 85 8 87 11 7 52 -11 52 -23 0 -5 -9
-10 -20 -10 -15 0 -20 -7 -20 -25 0 -20 5 -25 24 -25 21 0 24 5 30 60 6 55 9
60 31 60 24 0 24 -2 28 -102 3 -98 3 -97 6 37 2 88 6 131 11 115 4 -14 8 -18
9 -9 1 17 30 22 32 5 3 -29 7 -133 9 -241 2 -66 5 -105 7 -87 4 31 6 32 49 32
24 0 44 -4 44 -9 0 -6 9 -9 19 -8 11 0 17 5 15 9 -3 4 6 8 20 8 22 0 26 4 26
30 0 25 4 30 25 30 22 0 25 4 25 34 0 31 3 34 36 40 33 7 35 9 29 35 -5 26 -3
29 24 33 16 2 28 1 25 -3 -2 -4 1 -11 7 -15 9 -5 11 3 6 29 -5 31 -3 35 14 34
17 -1 20 -8 17 -47 -3 -38 -6 -45 -25 -48 -19 -3 -23 -10 -23 -36 0 -29 -3
-33 -25 -33 -29 0 -47 -13 -27 -20 6 -3 10 -9 7 -13 -3 -5 -12 -7 -21 -3 -13
5 -15 -8 -13 -86 1 -50 5 -91 10 -91 5 0 9 20 9 44 0 56 8 76 26 69 10 -4 14
4 15 28 1 30 2 31 8 9 3 -14 12 -25 19 -26 30 -2 33 -5 32 -26 -4 -44 -1 -53
12 -40 7 7 23 12 36 12 14 0 31 8 39 18 8 9 12 11 8 5 -3 -7 -2 -13 4 -13 5 0
12 8 14 18 3 9 5 0 6 -20 1 -35 4 -38 29 -38 20 0 23 3 13 9 -11 7 -7 10 15
13 22 2 30 9 33 28 3 23 4 24 12 5 6 -15 8 -16 8 -4 1 11 13 19 35 23 28 5 35
12 38 34 3 23 8 27 41 30 20 2 35 7 32 13 -4 5 -3 19 0 30 6 17 13 20 41 17
19 -2 35 0 35 4 1 4 3 13 4 18 1 6 3 17 4 25 1 11 14 15 57 15 47 0 55 -3 50
-16 -3 -9 -6 -20 -6 -25 0 -5 -18 -9 -40 -9 -36 0 -40 -2 -40 -25 0 -23 -22
-35 -33 -17 -2 4 -2 1 -1 -5 3 -11 -15 -18 -38 -14 -5 0 -8 -14 -8 -33 0 -27
-5 -35 -22 -40 -13 -3 -24 -1 -26 4 -8 23 -32 9 -32 -19 0 -26 -4 -30 -38 -36
-35 -6 -38 -9 -34 -31 4 -25 -12 -34 -21 -11 -3 6 -6 2 -6 -9 -1 -13 -9 -24
-21 -27 -11 -3 -20 -13 -20 -24 0 -15 8 -18 59 -18 33 0 54 3 48 7 -8 5 -6 8
6 8 9 0 17 -6 17 -14 0 -9 16 -18 42 -23 40 -8 41 -9 44 -53 5 -61 25 -150 35
-150 4 0 10 26 14 58 8 68 13 87 14 50 1 -28 22 -50 29 -30 2 7 8 10 13 6 15
-9 10 -24 -8 -24 -14 0 -15 -2 -5 -9 8 -4 13 -11 13 -15 -4 -32 1 -36 43 -36
44 0 44 0 42 -35 -1 -19 2 -35 6 -35 3 0 13 -3 22 -6 12 -5 15 2 13 37 -2 43
-1 43 36 50 35 5 37 4 37 -20 0 -14 3 -43 6 -63 6 -32 11 -38 30 -38 22 0 24
4 24 45 0 38 3 45 20 45 17 0 20 -7 20 -50 l0 -50 44 0 c50 0 56 -8 56 -76 0
-24 5 -44 10 -44 6 0 10 11 10 25 0 14 3 25 8 26 4 0 17 2 30 5 20 3 22 0 22
-36 0 -36 3 -40 24 -40 14 0 28 -5 31 -11 5 -6 12 -4 21 8 12 16 13 14 14 -19
l0 -38 -585 -2 c-322 -2 -590 -1 -595 0 -6 2 -10 10 -10 18 0 8 -3 14 -7 15
-5 0 -20 3 -35 5 -24 4 -28 1 -28 -20 0 -23 -2 -24 -72 -24 -43 0 -76 5 -80
12 -6 8 -8 7 -8 -1 0 -10 -21 -13 -77 -12 -55 1 -67 4 -42 8 27 4 35 10 33 23
-1 10 5 22 14 28 10 5 12 10 5 10 -19 0 -18 150 1 150 7 0 16 9 19 20 4 16 0
20 -19 20 -23 0 -24 2 -24 80 0 61 3 80 14 80 7 0 16 8 20 18 3 9 9 23 12 30
3 7 -2 12 -13 12 -17 1 -17 1 -1 11 12 6 17 21 16 44 -1 34 -2 35 -44 35 -23
0 -49 -3 -58 -6 -14 -5 -14 -7 0 -22 14 -14 14 -16 -3 -26 -16 -9 -15 -11 12
-17 l30 -7 -32 -1 c-22 -1 -33 4 -36 17 -3 9 -5 2 -6 -15 0 -18 -5 -33 -11
-33 -6 0 -10 -42 -10 -105 l0 -105 -30 0 c-26 0 -30 -4 -30 -28 0 -37 7 -43
35 -32 31 12 35 -1 35 -111 l0 -89 -74 0 c-74 0 -75 0 -78 -27 -3 -26 -7 -28
-55 -31 -49 -3 -53 -5 -53 -28 0 -23 -2 -24 -70 -24 l-70 0 0 -30 c0 -25 -4
-30 -25 -30 -24 0 -25 3 -25 61 l0 61 -37 -6 c-24 -4 -33 -3 -24 2 9 7 12 25
10 56 -4 40 -2 46 16 47 17 2 17 2 -2 6 -21 4 -23 10 -23 69 0 57 -2 64 -20
64 -20 0 -24 13 -20 55 l2 20 -21 -20 c-17 -17 -21 -34 -23 -110 -2 -87 -3
-90 -27 -96 -24 -6 -24 -7 7 -8 31 -1 32 -2 32 -46 0 -38 3 -45 20 -45 16 0
20 -7 20 -34 0 -18 6 -51 14 -73 l14 -40 -75 -7 c-82 -8 -408 -6 -461 1 -33 5
-33 5 -27 52 12 91 16 101 40 107 14 3 24 9 23 13 0 3 0 21 1 39 1 28 5 32 29
33 23 2 24 2 5 6 -13 2 -23 7 -23 11 0 4 -3 51 -6 105 -5 96 -5 97 18 98 l23
2 -22 4 c-22 4 -23 9 -23 94 0 62 -3 88 -11 83 -6 -3 -9 -15 -6 -25 3 -11 1
-16 -5 -13 -6 4 -9 -14 -6 -50 1 -31 -1 -56 -6 -56 -4 0 -6 -20 -4 -45 3 -41
1 -45 -19 -45 -22 0 -23 -4 -23 -80 0 -76 -1 -80 -22 -81 l-23 -2 23 -4 c19
-4 22 -11 22 -49 0 -38 -3 -44 -21 -44 -11 0 -18 4 -15 8 3 5 1 22 -4 38 -8
27 -8 25 -9 -17 -1 -25 -4 -67 -7 -93 -6 -40 -10 -46 -31 -46 -19 0 -23 4 -19
18 11 35 -8 45 -72 39 -60 -7 -61 -6 -64 21 -3 25 -7 27 -55 30 -51 3 -53 4
-53 32 l0 29 -77 3 -78 3 1 35 c1 19 2 71 3 115 2 44 5 73 8 65 14 -37 53 -23
53 19 0 17 -6 21 -30 21 -28 0 -30 2 -30 38 0 20 4 32 8 26 4 -6 17 -14 30
-18 20 -7 22 -4 22 32 0 26 -4 39 -14 39 -8 0 -12 -6 -9 -14 3 -8 -2 -13 -16
-13 -19 0 -21 6 -22 78 -1 42 -3 69 -6 60 -5 -20 -18 -23 -28 -8 -3 6 -1 10 4
10 6 0 11 5 11 10 0 6 -12 10 -26 10 -25 0 -26 3 -21 34 5 32 4 34 -36 44 -24
5 -32 10 -20 11 17 1 21 7 21 31 -1 26 -5 30 -30 30 -26 0 -29 -3 -27 -32 1
-18 1 -49 0 -68 -2 -28 -4 -31 -10 -15 -8 19 -8 19 -19 0 -7 -13 -11 -15 -12
-6 0 8 -2 12 -5 9 -3 -3 -3 -12 1 -21 4 -12 13 -15 29 -11 17 4 24 0 28 -18 4
-12 2 -27 -3 -32 -18 -18 -10 -36 15 -36 25 0 25 -1 25 -85 l0 -85 -27 -1
c-22 -1 -23 -2 -8 -6 31 -8 35 -21 35 -112 0 -77 1 -83 19 -78 19 5 31 -10 31
-38 0 -19 -210 -21 -222 -2 -6 9 -8 9 -8 0 0 -8 -14 -13 -35 -13 -34 0 -43 12
-36 53 0 4 -17 7 -39 7 -33 0 -40 -3 -40 -19 0 -12 8 -21 23 -24 12 -2 -254
-5 -590 -6 l-613 -1 0 36 c0 24 4 33 12 28 6 -4 24 -8 40 -9 25 -2 28 2 28 27
0 31 11 36 34 13 21 -22 26 -19 26 15 0 17 5 30 10 30 6 0 10 -10 10 -23 0
-20 4 -23 30 -19 17 2 30 8 30 13 0 5 -11 7 -25 3 -22 -6 -25 -3 -25 23 0 36
16 53 49 53 19 0 30 9 42 33 12 23 23 32 42 33 22 1 27 -3 27 -22 0 -15 6 -24
15 -24 11 0 15 12 16 48 1 26 2 52 4 57 1 6 3 16 3 23 1 6 15 12 32 12 25 0
30 -4 30 -23 0 -18 5 -23 28 -22 26 0 27 2 33 65 3 36 6 51 7 33 2 -28 5 -32
30 -30 23 2 27 -2 27 -25 -1 -16 3 -28 9 -28 5 0 6 29 2 70 -5 61 -4 70 10 70
12 0 15 -6 11 -21 -3 -12 -1 -32 4 -46 7 -18 6 -22 -4 -17 -7 4 -9 3 -4 -2 14
-15 77 -13 77 3 0 7 3 13 8 13 4 0 5 30 4 66 l-4 66 34 -4 c32 -3 33 -3 30 35
-3 32 -1 37 17 37 14 0 19 -5 15 -15 -4 -8 -11 -12 -16 -9 -6 4 -8 -4 -6 -17
2 -19 9 -24 33 -24 23 0 31 5 33 23 4 24 22 31 22 8 0 -18 33 -30 60 -21 15 5
21 0 26 -19 3 -14 10 -26 15 -26 10 0 1 29 -16 50 -7 8 -15 23 -18 33 -4 9
-16 17 -27 17 -15 0 -20 7 -20 24 0 13 -3 31 -6 40 -10 26 24 31 44 7 15 -19
20 -20 49 -9 25 9 33 19 36 43 3 26 4 25 6 -10 l3 -40 13 30 c8 17 14 23 15
15 0 -10 10 -15 32 -14 28 1 32 5 30 23 -3 17 2 21 22 21 14 0 26 -6 27 -12 0
-10 2 -10 6 0 7 19 23 14 23 -7 0 -11 5 -23 12 -27 8 -5 9 -1 5 12 -7 18 -7
18 8 0 14 -18 15 -15 15 37 0 53 -2 57 -24 57 -19 0 -22 4 -19 23 3 17 -3 25
-27 36 -26 11 -31 18 -27 37 2 13 1 21 -3 19 -10 -6 -60 52 -60 69 0 9 -7 12
-20 9 -14 -4 -22 1 -29 18 -5 13 -18 32 -29 42 -12 11 -18 26 -15 38 4 15 0
19 -20 19 -14 0 -28 -6 -30 -12 -3 -7 -6 -3 -6 9 -1 26 -46 59 -74 55 -12 -2
-17 1 -12 7 3 6 11 9 16 6 5 -4 9 6 9 21 0 24 -3 26 -30 21 -28 -6 -30 -4 -30
21 0 16 5 33 12 40 14 14 12 14 32 6z m2185 -116 c0 -30 -1 -31 -9 -10 -5 12
-17 22 -27 22 -15 0 -16 2 -3 10 28 18 40 11 39 -22z m-1111 5 c-15 -2 -42 -2
-60 0 -18 2 -6 4 27 4 33 0 48 -2 33 -4z m1083 -26 c-10 -9 -11 -8 -5 6 3 10
9 15 12 12 3 -3 0 -11 -7 -18z m928 -13 c12 -33 11 -37 -8 -50 -12 -9 -21 -24
-21 -35 0 -10 -4 -19 -10 -19 -12 0 -50 37 -50 48 0 19 14 21 32 5 19 -17 26
-5 7 14 -8 8 -5 14 11 23 15 8 20 18 17 31 -9 34 9 20 22 -17z m-3802 -4 c-5
-20 -2 -20 74 -14 76 7 79 6 79 -15 0 -18 6 -21 45 -21 41 0 45 -2 45 -25 0
-23 -4 -25 -42 -25 -32 0 -39 -3 -28 -10 13 -9 13 -10 0 -10 -8 -1 -34 -2 -57
-4 -42 -2 -43 -2 -43 31 0 31 2 33 35 33 19 0 35 5 35 10 0 15 -31 12 -64 -5
-39 -21 -72 -19 -96 5 -16 16 -33 20 -95 20 -73 0 -75 1 -75 25 0 25 0 25 96
25 92 0 96 -1 91 -20z m4833 -5 c0 -25 0 -25 -95 -25 -88 0 -95 -1 -95 -20 0
-17 -7 -20 -50 -20 -38 0 -50 4 -50 15 0 10 -10 15 -30 15 -21 0 -30 -5 -30
-16 0 -10 5 -14 16 -10 8 3 12 2 9 -4 -3 -6 1 -10 9 -10 10 0 16 -9 16 -21 0
-20 -4 -21 -50 -17 -48 5 -50 4 -50 -20 0 -24 -2 -25 -49 -19 -48 6 -50 5 -53
-21 -2 -23 -9 -28 -36 -30 -19 -2 -50 5 -70 15 l-37 18 48 9 c43 9 48 12 44
33 -4 22 -2 23 57 23 l61 0 0 33 c0 30 2 32 38 35 25 2 37 8 37 18 0 13 14 15
85 12 76 -3 85 -1 85 15 0 15 11 17 95 17 95 0 95 0 95 -25z m-1883 -1 c-3 -3
-12 -4 -19 -1 -8 3 -5 6 6 6 11 1 17 -2 13 -5z m-807 -15 c-12 -9 -13 -12 -1
-16 11 -5 11 -7 0 -14 -12 -8 -11 -11 1 -19 11 -7 -3 -10 -47 -10 -59 0 -63 1
-63 23 0 14 6 24 15 24 8 0 12 -4 9 -9 -3 -4 1 -8 10 -8 8 0 21 -3 30 -6 12
-5 16 0 16 20 0 20 5 26 23 26 18 0 19 -2 7 -11z m1108 4 c-9 -2 -19 -12 -21
-21 -3 -12 -5 -10 -6 6 -1 17 4 22 22 21 15 -1 17 -3 5 -6z m-1294 -68 c3 -8
1 -15 -4 -15 -6 0 -10 7 -10 15 0 8 2 15 4 15 2 0 6 -7 10 -15z m1766 -17 c29
-32 25 -48 -12 -48 -23 0 -29 3 -19 9 11 7 9 10 -8 16 -21 6 -22 8 -5 26 21
23 19 24 44 -3z m-3365 -30 c-1 -26 2 -28 35 -28 44 0 52 -7 40 -31 -9 -16 -5
-18 37 -21 46 -3 48 -5 51 -34 3 -27 8 -33 32 -36 16 -2 27 -1 24 4 -3 4 -2 8
1 8 10 0 44 -43 45 -56 0 -7 6 -12 13 -11 37 1 47 -4 44 -25 -1 -18 4 -23 28
-28 21 -4 31 -12 33 -28 3 -20 -1 -22 -36 -22 -36 0 -40 3 -46 31 -5 29 -9 31
-40 27 -28 -3 -36 0 -40 16 -7 25 4 42 15 25 7 -11 9 -10 9 4 0 13 -8 17 -35
17 -37 0 -75 25 -75 50 0 11 -11 15 -37 15 -33 0 -38 3 -41 26 -3 25 -5 26
-53 21 l-49 -5 0 31 0 31 -51 -6 c-38 -4 -53 -2 -60 8 -18 29 -9 38 44 42 102
7 112 5 112 -25z m1192 0 c-3 -7 -5 -2 -5 12 0 14 2 19 5 13 2 -7 2 -19 0 -25z
m936 -58 c-3 -11 -7 -20 -9 -20 -2 0 -4 9 -4 20 0 11 4 20 9 20 5 0 7 -9 4
-20z m-166 -62 c-3 -8 -6 -5 -6 6 -1 11 2 17 5 13 3 -3 4 -12 1 -19z m-637
-18 c0 -6 -7 -10 -15 -10 -8 0 -15 2 -15 4 0 2 -3 12 -7 21 -5 15 -3 16 15 6
12 -7 22 -16 22 -21z m-612 -71 c19 -1 21 -3 9 -6 -27 -7 -87 6 -87 19 0 5 7
8 15 5 8 -4 18 -1 22 6 5 8 9 7 11 -5 2 -12 13 -18 30 -19z m1409 -21 c-3 -8
-6 -5 -6 6 -1 11 2 17 5 13 3 -3 4 -12 1 -19z m970 0 c-3 -8 -6 -5 -6 6 -1 11
2 17 5 13 3 -3 4 -12 1 -19z m-2179 -15 c-10 -2 -26 -2 -35 0 -10 3 -2 5 17 5
19 0 27 -2 18 -5z m2580 0 c-10 -2 -28 -2 -40 0 -13 2 -5 4 17 4 22 1 32 -1
23 -4z m-3101 -108 c1 -16 -1 -22 -3 -13 -3 10 -16 21 -30 24 -33 8 -30 26 4
22 22 -2 27 -8 29 -33z m964 13 c-4 -13 -7 -29 -5 -36 1 -7 0 -8 -3 -2 -2 5
-8 8 -12 6 -4 -3 -5 8 -3 25 2 16 10 29 18 29 10 0 11 -6 5 -22z m-1224 -145
c-2 -16 -4 -5 -4 22 0 28 2 40 4 28 2 -13 2 -35 0 -50z m221 42 c-3 -3 -9 2
-12 12 -6 14 -5 15 5 6 7 -7 10 -15 7 -18z m3529 -31 c-3 -3 -12 -4 -19 -1 -8
3 -5 6 6 6 11 1 17 -2 13 -5z m-3830 -51 c-3 -10 -5 -2 -5 17 0 19 2 27 5 18
2 -10 2 -26 0 -35z m1788 -3 c3 -6 -1 -7 -9 -4 -18 7 -21 14 -7 14 6 0 13 -4
16 -10z m273 -15 c-3 -3 -9 2 -12 12 -6 14 -5 15 5 6 7 -7 10 -15 7 -18z
m1746 -47 c-3 -4 2 -8 10 -8 10 0 16 -9 16 -23 0 -18 -6 -22 -30 -23 -33 -2
-34 -1 -20 27 7 13 7 19 0 19 -5 0 -10 4 -10 8 0 4 9 8 19 8 11 0 17 -4 15 -8z
m-2621 -462 c10 -5 17 -16 15 -25 -3 -14 -46 -16 -428 -19 -234 -2 -741 0
-1127 4 l-703 6 0 25 0 24 1113 -3 c611 -2 1120 -7 1130 -12z m3697 -11 c0
-25 -1 -25 -92 -25 -51 -1 -547 -3 -1103 -6 -555 -2 -1023 -1 -1040 4 -16 5
-30 15 -30 23 0 22 115 25 1233 27 l1032 2 0 -25z m-2280 -4 c0 -6 -4 -13 -10
-16 -5 -3 -10 1 -10 9 0 9 5 16 10 16 6 0 10 -4 10 -9z m-10 -55 c0 -33 -12
-38 -64 -31 -36 6 -43 10 -39 25 5 18 25 25 81 29 17 1 22 -4 22 -23z m-1262
-13 c-3 -30 -29 -40 -74 -29 -17 5 -24 13 -24 31 0 23 3 25 51 25 49 0 50 -1
47 -27z m126 -29 c38 -6 46 -10 46 -28 0 -19 -6 -21 -75 -23 -57 -1 -75 2 -75
12 0 7 -3 20 -6 29 -7 18 27 21 110 10z m1016 -19 c0 -24 -2 -25 -75 -25 -68
0 -75 2 -75 19 0 20 18 25 113 29 33 2 37 0 37 -23z m-923 -70 c-14 -28 -32
-33 -41 -9 -11 28 -7 34 23 34 27 0 28 -1 18 -25z m-1217 -7 c0 -5 0 -62 0
-128 l0 -121 -112 3 -113 3 -3 128 -3 128 116 -3 c63 -2 115 -6 115 -10z
m1944 1 c11 17 36 13 30 -4 -9 -22 -54 -20 -54 3 0 13 2 14 9 3 6 -9 11 -10
15 -2z m1154 -116 l-3 -128 -115 0 -115 0 -3 128 -3 127 121 0 121 0 -3 -127z
m-4213 73 c14 -70 12 -71 -113 -74 l-112 -3 0 49 c0 27 3 52 7 55 3 4 53 7
109 7 l103 0 6 -34z m2965 9 l0 -25 -270 0 -270 0 0 25 0 25 270 0 270 0 0
-25z m2650 -30 l0 -55 -110 0 -110 0 0 49 c0 30 5 51 13 54 6 3 56 6 110 6
l97 1 0 -55z m-4970 -75 l0 -110 -110 0 -110 0 0 110 0 110 110 0 110 0 0
-110z m3094 88 c8 -30 8 -162 0 -182 -5 -13 -25 -16 -115 -16 l-109 0 0 110 0
110 109 0 c104 0 109 -1 115 -22z m-4764 -188 c0 -5 -5 -10 -11 -10 -5 0 -7 5
-4 10 3 6 8 10 11 10 2 0 4 -4 4 -10z m1440 -115 l0 -105 -80 0 -80 0 0 105 0
105 80 0 80 0 0 -105z m468 3 l-3 -103 -112 -3 -113 -3 0 106 0 105 116 0 115
0 -3 -102z m2622 -3 l0 -105 -75 0 -75 0 0 105 0 105 75 0 75 0 0 -105z m470
0 l0 -105 -115 0 -115 0 0 105 0 105 115 0 115 0 0 -105z m-1140 -36 c0 -26 3
-30 23 -27 19 3 22 -1 19 -24 -2 -25 0 -28 28 -28 25 0 30 -4 30 -25 0 -23 13
-31 43 -26 6 1 12 -121 8 -156 -2 -12 11 -17 32 -14 4 0 7 -14 7 -31 0 -18 3
-56 6 -85 6 -47 9 -52 33 -55 20 -2 27 -10 31 -33 4 -23 11 -31 30 -34 33 -4
40 -17 40 -70 0 -41 1 -43 25 -37 22 6 25 3 24 -21 0 -25 -1 -26 -9 -8 -8 18
-9 17 -9 -7 -1 -18 -6 -28 -16 -28 -8 0 -15 -5 -15 -12 0 -6 3 -8 7 -4 4 3 13
-4 20 -16 7 -13 12 -18 13 -12 0 6 10 11 22 10 18 -1 24 -9 31 -43 8 -41 10
-43 43 -43 l34 0 0 -50 c0 -38 4 -50 15 -50 8 0 15 8 15 18 1 16 1 16 11 -1 5
-9 7 -22 4 -27 -4 -6 11 -11 37 -12 l43 -1 -37 -4 c-34 -4 -38 -7 -38 -34 0
-26 3 -29 33 -30 28 0 29 -2 12 -10 -15 -7 -8 -8 27 -5 43 3 46 2 38 -15 -6
-10 -10 -28 -10 -40 0 -20 3 -21 45 -16 39 6 45 4 45 -11 0 -15 -7 -17 -35
-14 -29 3 -35 1 -35 -14 0 -11 3 -15 8 -9 4 7 34 9 77 5 62 -4 70 -7 73 -27 3
-18 -1 -21 -22 -19 -14 2 -23 -1 -20 -6 7 -11 124 -8 124 4 0 11 78 10 85 -2
3 -6 -1 -7 -9 -4 -10 4 -16 1 -16 -7 0 -11 -2 -11 -9 -1 -6 10 -10 10 -21 -2
-7 -9 -16 -13 -21 -10 -5 3 -9 -2 -9 -10 0 -14 17 -16 105 -16 61 0 105 -4
105 -10 0 -5 -7 -7 -15 -4 -11 5 -15 -1 -15 -25 0 -30 1 -31 33 -25 38 7 45 8
122 4 l60 -3 -45 -7 c-25 -4 -39 -8 -32 -8 6 -1 12 -14 12 -28 0 -14 4 -23 10
-19 6 3 10 1 10 -4 0 -6 5 -11 11 -11 5 0 7 5 3 12 -5 8 -2 9 10 5 10 -4 24
-7 31 -7 8 0 15 -13 17 -32 2 -21 9 -32 21 -34 9 -1 15 2 11 7 -9 15 13 10 30
-7 9 -8 34 -15 56 -16 37 0 40 -2 40 -29 0 -27 3 -29 36 -29 33 0 36 -2 30
-24 l-6 -24 133 -5 c239 -10 472 -28 475 -38 2 -5 65 -9 143 -9 l139 0 0 -30
0 -30 295 0 295 0 0 -25 0 -25 -249 0 c-292 0 -341 5 -341 31 0 18 -9 19 -107
20 -184 2 -193 3 -193 15 0 12 -242 30 -260 19 -6 -3 -10 -1 -10 4 0 7 -36 11
-99 11 -81 0 -100 -3 -105 -16 -11 -29 5 -34 110 -34 l104 0 0 -25 c0 -24 2
-25 35 -19 35 6 35 6 35 -30 l0 -36 95 0 c95 0 95 0 95 -25 l0 -25 154 0 c153
0 155 0 158 -22 3 -22 8 -23 96 -26 90 -3 92 -3 92 -27 0 -25 0 -25 -104 -25
l-103 0 5 27 5 26 -54 -6 c-30 -4 -105 -4 -166 0 -110 6 -113 7 -113 30 l0 23
-175 0 c-110 0 -175 4 -175 10 0 6 -59 10 -157 10 -133 -1 -155 -3 -141 -14
16 -12 16 -14 -7 -24 -29 -13 -34 -42 -7 -41 10 0 12 3 5 6 -24 9 -13 23 17
23 27 0 30 -3 30 -33 0 -32 1 -32 40 -29 39 4 40 3 40 -27 l0 -31 -86 6 -86 7
4 -34 c3 -31 0 -35 -29 -44 -44 -12 -43 -39 2 -52 25 -8 35 -8 39 1 2 6 5 -4
5 -21 1 -32 3 -33 41 -33 38 0 40 -2 40 -30 0 -33 14 -39 28 -14 7 13 20 15
73 9 62 -7 65 -8 64 -33 0 -26 2 -27 52 -25 51 2 52 1 55 -30 3 -30 5 -32 53
-37 30 -3 50 -10 51 -17 1 -7 2 -19 2 -25 1 -8 18 -13 44 -13 39 0 43 -2 48
-29 4 -26 6 -27 19 -13 7 10 23 17 35 16 19 -1 18 -2 -4 -9 l-25 -8 29 -1 c26
-1 28 -4 24 -34 -3 -31 -2 -32 29 -29 28 4 33 1 33 -17 0 -17 6 -21 35 -21 27
0 35 -4 35 -17 1 -17 2 -17 15 0 13 18 14 18 24 -1 7 -13 7 -23 -2 -32 -10
-10 -5 -12 26 -7 34 5 37 4 37 -19 0 -19 8 -29 30 -37 30 -12 48 -45 35 -66
-3 -6 -1 -11 4 -11 6 0 11 5 11 10 0 14 33 12 54 -3 9 -7 18 -21 20 -32 2 -11
11 -19 24 -20 27 -2 42 -16 25 -22 -7 -3 -13 -9 -13 -14 0 -6 8 -6 19 1 21 11
37 -2 26 -19 -3 -5 11 -15 30 -21 34 -11 48 -30 23 -30 -7 0 -3 -7 10 -15 16
-12 34 -14 70 -9 l49 6 6 -40 c6 -34 11 -40 37 -46 39 -7 58 -26 52 -48 -3
-13 1 -18 17 -18 13 0 26 -11 36 -30 9 -16 21 -30 28 -31 43 -2 92 -29 54 -29
-9 0 -17 -4 -17 -10 0 -5 11 -10 25 -10 15 0 25 -6 25 -14 0 -19 29 -48 41
-41 5 4 9 2 9 -4 0 -13 -55 -42 -64 -34 -3 4 -6 15 -6 25 0 11 -11 23 -25 28
-14 5 -25 16 -25 25 0 8 -4 15 -10 15 -5 0 -10 -4 -10 -10 0 -5 -7 -10 -15
-10 -18 0 -20 37 -2 43 6 2 -7 7 -31 11 -23 4 -40 11 -37 15 6 11 -24 51 -38
51 -23 1 -57 38 -57 63 0 21 -8 28 -42 39 -24 8 -59 13 -79 10 -34 -4 -36 -2
-36 22 0 34 -9 42 -28 26 -13 -11 -15 -8 -15 15 0 19 -4 26 -14 22 -16 -6 -50
26 -39 36 3 4 -1 7 -10 7 -9 0 -17 7 -17 16 0 11 -6 14 -20 9 -14 -4 -20 -2
-20 9 0 8 -9 18 -20 21 -11 3 -20 10 -20 15 0 5 -7 7 -15 4 -15 -6 -20 14 -15
60 1 11 -3 15 -9 12 -6 -4 -11 -14 -11 -22 0 -18 -11 -18 -35 -1 -12 10 -14
16 -7 21 7 4 12 11 12 15 0 12 -39 21 -46 10 -9 -15 -22 -10 -20 9 1 12 -5 16
-18 14 -17 -3 -18 -2 -7 12 16 19 6 35 -10 19 -17 -17 -39 -4 -35 21 2 11 1
15 -1 9 -6 -18 -23 -16 -23 2 0 8 -3 14 -7 14 -27 -4 -42 4 -47 26 -5 18 -13
25 -30 25 -45 0 -86 13 -86 26 0 8 -7 14 -15 14 -8 0 -15 6 -15 14 0 8 -22 18
-60 26 -59 13 -60 13 -66 51 l-7 39 -68 0 c-66 0 -69 1 -69 24 0 24 -1 24 -92
24 l-93 0 -3 30 c-3 29 -5 30 -36 25 -30 -5 -34 -2 -38 21 -3 14 0 27 6 30 6
2 -6 3 -28 1 -31 -2 -40 1 -43 16 -4 16 -15 19 -59 19 -52 0 -54 1 -54 28 0
21 -2 24 -10 12 -5 -8 -10 -10 -10 -5 0 6 -4 4 -9 -3 -5 -8 -8 -35 -6 -60 1
-45 3 -47 34 -50 31 -3 33 -6 27 -33 -5 -28 -4 -29 32 -30 35 0 92 -17 65 -18
-7 -1 -13 -10 -13 -20 0 -15 6 -19 21 -16 34 7 89 -25 89 -52 0 -21 4 -23 55
-23 53 0 55 -1 55 -27 0 -23 5 -28 25 -29 44 -3 55 -12 55 -44 0 -27 3 -30 21
-25 35 11 69 -3 69 -28 0 -15 10 -26 31 -36 17 -7 35 -24 41 -37 6 -13 17 -24
24 -24 7 0 25 -13 41 -30 15 -16 34 -30 40 -30 7 0 13 -11 13 -24 0 -21 4 -24
33 -22 26 1 33 -3 35 -20 3 -18 -1 -21 -25 -18 -15 2 -4 -4 25 -13 28 -10 52
-22 52 -28 0 -6 11 -21 25 -33 14 -13 25 -33 25 -47 0 -23 2 -24 21 -15 26 14
53 5 45 -15 -6 -16 24 -37 46 -33 6 2 14 -10 17 -27 5 -24 12 -31 34 -33 22
-3 27 -7 22 -22 -4 -13 3 -23 25 -36 16 -10 30 -24 30 -31 0 -7 7 -13 15 -13
18 0 20 -26 3 -33 -7 -3 -3 -6 8 -6 36 -2 49 -61 13 -61 -13 0 -23 10 -30 29
-7 19 -19 31 -32 33 -16 2 -21 9 -20 25 2 15 -2 21 -11 17 -7 -3 -16 2 -19 10
-4 9 -13 16 -21 16 -9 0 -13 6 -10 14 4 10 0 13 -13 10 -12 -3 -25 6 -41 31
-20 32 -21 35 -4 35 10 0 24 -6 31 -12 10 -11 11 -10 6 5 -8 19 -59 24 -70 7
-12 -19 -22 -10 -34 30 -10 34 -16 40 -32 35 -22 -7 -26 13 -6 35 6 8 2 6 -10
-4 -23 -19 -23 -19 -24 0 -1 10 0 24 1 29 12 50 12 50 -12 23 -30 -36 -38 -35
-38 2 0 27 -3 30 -29 30 -23 0 -30 5 -33 23 -2 15 -9 22 -25 21 -18 0 -22 4
-20 25 1 14 -2 26 -8 26 -5 0 -9 -6 -9 -12 1 -7 -11 -3 -26 10 -15 12 -26 25
-24 29 2 3 -5 4 -16 1 -16 -4 -20 0 -21 23 l-1 29 -8 -25 c-7 -23 -8 -23 -9
-3 -1 12 -5 24 -11 28 -5 3 -7 12 -4 19 3 8 0 17 -7 22 -9 5 -10 2 -6 -10 6
-14 3 -17 -9 -12 -8 3 -22 6 -30 6 -7 0 -11 6 -8 14 6 17 -22 46 -44 46 -9 0
-22 11 -28 25 -10 20 -9 25 5 29 9 2 -3 2 -26 -1 -52 -7 -93 3 -93 22 0 7 -9
17 -20 20 -13 4 -20 15 -20 33 0 19 -3 23 -9 14 -7 -11 -9 -11 -14 2 -4 9 -18
21 -32 26 -14 5 -25 16 -25 24 0 12 -6 13 -30 5 -16 -6 -30 -16 -30 -22 0 -7
-4 -6 -9 2 -5 8 -8 27 -6 43 3 21 -1 28 -14 28 -9 0 -22 -5 -28 -11 -8 -8 -11
-7 -10 2 1 33 -4 50 -13 44 -5 -3 -10 -1 -10 5 0 6 -4 8 -10 5 -5 -3 -10 -2
-10 3 0 5 -11 7 -25 4 -22 -4 -25 -1 -26 24 -1 17 -3 22 -6 11 -4 -14 -17 -17
-84 -17 -71 0 -79 -2 -79 -19 0 -10 6 -19 13 -18 6 0 31 -1 53 -1 39 -2 42 -4
48 -35 5 -26 14 -36 41 -47 29 -11 34 -19 37 -48 2 -21 9 -37 18 -39 13 -4 13
-3 0 6 -24 17 -2 13 25 -5 20 -13 23 -22 18 -42 -6 -24 -4 -25 26 -19 29 6 31
5 25 -16 -6 -25 9 -43 41 -49 14 -2 23 -16 30 -43 12 -48 23 -66 38 -64 49 6
57 0 57 -46 0 -41 2 -45 24 -45 19 0 25 -6 28 -26 2 -15 12 -32 23 -38 11 -6
22 -12 25 -14 3 -2 -4 -11 -15 -19 -18 -14 -18 -15 -1 -9 14 5 17 3 12 -11 -4
-10 -4 -14 0 -10 10 9 45 -23 38 -34 -3 -5 1 -9 9 -9 26 0 39 -74 15 -83 -7
-2 -10 -8 -5 -12 4 -5 13 -3 19 3 7 7 22 12 34 12 17 0 22 -6 21 -27 0 -51 3
-64 14 -57 8 4 8 0 0 -15 -7 -11 -17 -21 -24 -21 -21 1 -56 36 -63 64 -3 14
-12 26 -20 26 -8 0 -14 15 -16 43 -2 35 -7 43 -25 45 -15 2 -25 13 -29 28 -3
13 -11 24 -16 24 -6 0 -8 9 -5 20 3 11 1 20 -4 20 -5 0 -7 11 -3 25 6 24 4 25
-20 19 -23 -5 -26 -3 -26 20 0 21 -6 28 -30 33 -20 4 -32 13 -35 27 -15 78
-14 76 -50 76 -32 0 -35 2 -35 29 0 17 -5 33 -10 36 -6 4 -8 10 -5 15 3 4 -2
10 -9 13 -8 3 -17 3 -19 -1 -2 -4 -3 -2 -1 4 1 6 -6 24 -17 40 -10 16 -19 23
-19 17 0 -7 -9 -13 -20 -13 -25 0 -27 20 -2 21 10 0 12 3 5 6 -7 2 -13 9 -13
15 0 11 -38 48 -50 48 -4 0 -13 12 -20 26 -12 22 -20 25 -62 23 -26 -2 -51 0
-54 4 -4 4 -31 7 -61 7 -46 0 -55 3 -63 23 -8 17 -9 15 -4 -14 5 -34 4 -36
-26 -43 -46 -9 -62 -8 -55 4 4 6 -10 10 -37 9 -40 -1 -41 -2 -13 -9 30 -8 30
-8 -7 -9 -34 -1 -38 2 -38 24 0 21 -3 23 -23 16 -13 -5 -63 -9 -111 -10 -96
-1 -106 -4 -106 -29 0 -15 2 -15 10 -2 6 9 10 10 10 3 0 -6 12 -13 28 -15 21
-3 18 -5 -15 -9 -41 -4 -43 -4 -43 23 0 16 -5 28 -10 28 -6 0 -9 3 -9 8 1 4 1
18 0 31 -1 23 -3 24 -53 18 -37 -4 -47 -3 -33 4 14 6 -2 8 -50 5 -38 -2 -57
-1 -42 2 25 6 26 9 15 25 -8 11 -27 18 -51 19 -32 1 -37 4 -37 26 0 23 -2 24
-55 20 -37 -2 -56 1 -60 10 -2 6 -14 12 -25 12 -11 0 -19 3 -19 8 1 4 1 21 0
39 -1 25 -6 32 -23 35 -22 3 -23 6 -26 141 l-3 137 33 0 c45 0 56 9 60 50 2
27 8 36 26 38 18 3 22 10 22 36 0 31 3 34 38 40 20 3 53 6 72 6 29 0 36 4 36
20 0 13 -7 20 -18 20 -10 0 -18 5 -18 10 0 6 3 9 8 9 4 -1 14 -1 23 0 19 1 43
48 28 56 -17 11 2 25 34 25 52 0 76 10 79 34 2 15 11 22 31 24 20 3 27 9 27
25 0 12 3 52 7 90 l6 67 -31 0 c-30 0 -31 -1 -37 -57 -7 -64 -17 -89 -35 -85
-7 1 -18 -2 -25 -8 -8 -6 -57 -16 -109 -22 -80 -10 -96 -14 -96 -29 0 -11 -9
-19 -22 -21 -18 -2 -24 -12 -30 -47 -4 -24 -10 -46 -12 -48 -3 -3 -29 -9 -58
-13 l-53 -8 48 -1 c34 -1 47 -5 48 -16 4 -47 3 -50 -16 -47 -11 2 -29 4 -40 5
-11 1 -22 12 -26 27 -6 23 -7 22 -9 -10 -2 -36 -4 -32 -15 33 -5 33 -9 37 -36
37 -25 0 -30 -5 -36 -32 -5 -27 -7 -29 -14 -13 -6 16 -8 14 -8 -11 -1 -39 -14
-45 -90 -38 l-59 6 5 -26 c4 -17 12 -26 24 -26 14 0 20 -10 25 -38 4 -26 13
-41 27 -48 12 -5 21 -15 19 -22 -3 -15 4 -15 29 -2 18 10 19 6 19 -125 l0
-135 -37 0 c-31 -1 -35 -3 -20 -11 19 -11 24 -60 5 -57 -7 2 -17 -12 -23 -30
-12 -41 -42 -41 -37 1 2 15 -1 27 -7 27 -6 0 -11 -11 -11 -25 0 -22 -4 -25
-29 -23 -22 2 -27 6 -23 22 3 13 1 17 -6 12 -7 -4 -12 -14 -12 -22 0 -9 -11
-14 -34 -14 -35 0 -71 -24 -61 -41 3 -5 1 -18 -5 -29 -11 -20 -17 -21 -91 -14
-71 6 -79 5 -79 -11 0 -11 -5 -15 -15 -11 -8 3 -15 1 -15 -4 0 -6 7 -10 15
-10 9 0 15 -9 14 -22 -1 -17 -2 -19 -6 -5 -2 9 -9 17 -14 17 -6 0 -8 -9 -4
-19 5 -16 2 -18 -15 -14 -11 3 -20 10 -20 15 0 5 5 6 10 3 6 -3 10 -2 10 3 0
6 -7 13 -16 16 -8 3 -12 2 -9 -4 9 -14 -30 -30 -62 -25 -59 10 -133 12 -139 4
-5 -8 55 -12 165 -11 30 0 39 -3 30 -9 -10 -7 -6 -8 12 -3 16 3 30 1 34 -6 6
-9 10 -9 16 1 6 10 9 8 9 -8 0 -24 -14 -31 -25 -13 -4 6 -10 8 -14 6 -4 -3
-25 1 -47 8 -37 13 -281 23 -436 19 -38 -1 -68 1 -68 5 0 4 -12 7 -27 6 -16
-1 -34 -3 -41 -3 -7 -1 -10 -5 -7 -11 3 -5 -6 -12 -20 -16 -13 -3 -22 -11 -19
-16 4 -6 -2 -8 -12 -6 -21 4 -40 48 -31 72 4 9 18 16 32 16 19 0 25 5 25 21 0
14 5 19 14 16 19 -8 32 73 14 85 -22 14 -51 10 -44 -7 4 -11 -1 -15 -19 -15
-13 0 -26 -4 -29 -9 -3 -4 6 -6 19 -3 14 2 25 2 25 -1 0 -13 -53 -13 -66 0
-12 13 -14 12 -14 -1 0 -9 -7 -16 -15 -16 -8 0 -22 -11 -31 -25 -9 -14 -20
-22 -25 -19 -5 3 -9 -2 -9 -10 0 -17 -54 -46 -87 -46 -13 0 -26 -7 -29 -15 -7
-18 -31 -20 -37 -3 -2 7 -3 4 -1 -7 2 -11 -5 -29 -15 -40 -11 -11 -21 -29 -23
-39 -1 -11 -9 -21 -16 -22 -7 -1 -8 0 -2 3 12 6 14 43 1 43 -5 0 -14 -7 -21
-15 -7 -9 -30 -15 -54 -16 -22 0 -35 -3 -28 -6 6 -2 12 -18 12 -35 0 -25 -3
-28 -21 -23 -15 5 -25 1 -36 -14 -8 -12 -19 -19 -24 -16 -5 4 -9 -5 -9 -19 0
-21 -5 -25 -32 -28 -21 -2 -34 -9 -34 -18 -1 -8 -2 -21 -3 -27 -1 -8 -15 -13
-36 -13 -25 0 -33 -4 -29 -14 3 -8 1 -17 -5 -21 -6 -3 -11 2 -12 12 0 10 -6 2
-13 -17 -10 -29 -18 -36 -44 -38 -26 -3 -32 -8 -32 -28 0 -20 -5 -24 -32 -25
-18 -1 -36 -1 -40 0 -12 2 -10 -17 2 -24 19 -12 10 -35 -13 -35 -19 0 -22 5
-23 41 -1 34 2 42 22 50 16 5 27 19 30 39 7 32 22 38 42 18 9 -9 12 -6 12 15
0 21 5 27 21 27 13 0 23 10 30 30 6 17 17 30 25 30 8 0 23 9 34 20 18 18 20
18 29 2 9 -14 10 -11 11 16 0 27 4 32 25 32 14 0 25 -4 25 -10 0 -5 4 -10 9
-10 5 0 8 8 6 18 -1 9 -8 16 -14 14 -22 -5 -10 35 14 46 15 7 25 8 25 2 0 -6
5 -10 11 -10 5 0 7 5 4 10 -3 6 0 10 7 10 10 0 9 3 -2 10 -8 5 -11 12 -7 16 4
4 16 -1 27 -11 20 -18 20 -17 20 9 0 15 7 29 15 32 8 4 12 10 9 15 -9 15 14
10 30 -7 15 -14 16 -12 16 21 0 35 1 36 30 30 20 -4 30 -3 30 5 0 8 10 11 24
8 20 -4 26 0 28 16 2 15 11 22 35 24 26 3 32 -1 36 -20 5 -22 5 -22 4 2 -1 17
-10 26 -27 31 -16 4 -19 7 -7 8 9 1 17 6 17 11 0 17 38 11 44 -8 3 -9 4 0 3
21 -2 26 1 37 11 37 7 0 11 4 8 9 -3 4 12 5 32 1 38 -7 38 -6 34 23 -5 32 9
47 46 47 18 0 22 6 22 29 0 17 5 33 10 36 6 4 8 11 5 16 -4 5 14 9 41 9 46 0
47 0 29 -20 -18 -20 -17 -20 13 -20 18 0 32 5 32 11 0 5 4 8 9 4 5 -3 12 -1
16 5 3 5 0 10 -7 10 -9 0 -9 3 2 10 10 7 -10 10 -66 10 -69 0 -83 -3 -89 -17
-6 -17 -7 -17 -21 1 -13 19 -14 19 -14 -7 0 -26 -2 -27 -49 -27 -39 0 -51 4
-54 18 -3 10 -5 7 -6 -10 -1 -23 -7 -28 -36 -34 -20 -3 -35 -12 -35 -20 0 -8
5 -14 11 -14 5 0 7 -4 4 -10 -3 -5 -26 -10 -51 -10 -40 0 -44 -2 -44 -25 0
-25 0 -25 -95 -25 -95 0 -95 0 -95 -25 0 -24 -2 -25 -69 -25 l-70 0 -3 -32
c-3 -28 -7 -33 -27 -30 -20 2 -22 -1 -17 -23 6 -24 5 -25 -49 -25 -51 0 -55
-2 -55 -24 0 -21 -6 -24 -55 -31 -44 -5 -55 -10 -55 -24 0 -29 -25 -44 -49
-32 -29 16 -31 14 -25 -18 5 -22 2 -29 -14 -33 -10 -3 -27 -1 -36 4 -14 8 -16
6 -11 -15 6 -22 3 -26 -24 -32 -17 -3 -35 -4 -41 0 -6 4 -10 -4 -10 -19 0 -28
-26 -36 -48 -14 -15 15 -16 3 -2 -23 9 -15 7 -19 -5 -19 -9 0 -23 -7 -32 -16
-9 -8 -22 -13 -30 -10 -10 4 -11 1 -3 -14 16 -30 -9 -37 -32 -9 l-18 24 2 -30
c2 -24 -1 -30 -15 -28 -14 1 -17 -4 -14 -18 3 -10 1 -19 -4 -19 -5 0 -9 4 -9
9 0 5 -7 12 -16 15 -14 5 -15 4 -4 -9 18 -22 6 -44 -22 -38 -51 11 -52 12 -34
31 9 10 16 24 16 31 0 7 6 11 14 8 9 -4 16 2 19 15 4 13 11 19 20 15 10 -4 17
2 21 18 5 18 15 26 41 31 22 4 35 12 35 21 0 13 2 13 17 2 15 -13 16 -12 11 9
-5 19 2 27 17 20 2 -2 12 7 21 20 11 16 22 21 36 16 16 -5 19 -2 16 13 -2 10
4 27 14 37 10 11 18 26 18 33 0 7 5 13 10 13 6 0 10 -4 10 -10 0 -5 11 -10 25
-10 15 0 25 6 25 15 0 18 31 35 64 35 22 0 26 4 26 30 0 29 2 30 45 30 31 0
43 4 40 13 -8 21 9 35 45 39 27 2 35 8 40 28 5 22 12 25 53 28 45 3 47 5 47
33 0 29 0 29 60 29 57 0 60 1 60 24 0 21 6 24 57 31 46 6 59 4 69 -9 6 -9 18
-16 27 -16 14 0 15 5 7 26 -16 40 -13 44 34 44 45 0 56 10 56 51 0 12 7 19 19
19 11 0 23 5 26 10 3 6 2 10 -3 10 -5 0 -8 12 -6 26 2 18 -2 24 -11 20 -8 -3
-15 0 -17 5 -2 6 -46 14 -98 17 -88 6 -95 9 -92 27 2 11 4 25 4 30 1 6 21 8
47 6 25 -2 43 0 39 4 -4 4 1 19 12 33 11 13 17 28 14 33 -3 5 7 4 21 -1 34
-13 33 -14 27 15 l-4 25 -160 0 c-103 0 -157 -3 -153 -10 7 -11 -101 -16 -257
-11 l-98 3 0 -24 0 -25 -138 -7 c-76 -4 -150 -4 -165 -1 -22 6 -25 4 -20 -13
6 -25 -18 -32 -124 -32 -82 0 -83 0 -83 25 0 25 0 25 95 25 86 0 95 2 95 19 0
26 25 31 176 31 l131 0 -4 25 -5 24 98 3 c95 3 98 4 104 28 3 14 14 26 24 28
11 3 16 0 12 -7 -4 -7 1 -11 13 -11 16 0 21 6 21 25 0 31 2 31 224 52 l69 6
-49 18 c-29 11 -75 19 -111 19 -107 0 -368 -21 -377 -31 -6 -5 -79 -9 -163 -9
l-153 0 0 25 0 25 139 0 c82 0 141 4 143 10 2 5 67 13 146 16 78 4 142 11 142
16 0 4 69 8 154 8 l153 0 -3 28 c-2 15 -2 22 1 16 3 -6 19 -9 35 -6 16 2 27 8
24 13 -3 5 1 9 9 9 10 0 13 8 9 25 -4 25 -4 25 79 27 46 1 65 3 42 5 -50 5
-63 34 -14 30 16 -1 27 -5 24 -9 -2 -5 2 -8 10 -8 9 0 12 9 9 30 l-4 30 55 0
c31 0 59 5 62 10 4 6 11 7 17 4 7 -4 8 -2 4 4 -4 7 -14 12 -21 12 -12 0 -11 4
2 20 13 15 30 20 71 20 46 0 53 3 50 18 -3 13 -13 17 -51 16 -34 0 -47 3 -47
14 0 11 16 13 78 12 42 -1 107 -2 145 -1 60 1 67 3 67 21 0 16 7 20 35 20 31
0 35 3 35 25 0 25 1 25 87 25 47 0 84 3 80 6 -3 3 -32 6 -64 7 -32 0 -46 2
-30 4 24 4 27 9 27 40 0 20 3 33 7 29 4 -4 8 -15 8 -24 0 -21 44 -18 61 4 10
12 13 12 17 2 3 -7 6 1 6 19 1 21 -5 36 -16 42 -14 8 -1 10 50 11 l67 0 0 44
c0 40 2 44 30 50 21 4 30 11 30 25 0 14 5 18 20 14 11 -3 20 -1 20 3 0 5 3 20
7 33 5 21 3 23 -15 19 -12 -4 -22 -2 -22 3 0 5 21 9 48 10 26 0 41 3 35 6 -17
6 -16 42 1 49 8 3 12 13 9 25 -4 15 0 19 23 20 28 1 28 1 5 8 l-24 6 27 12
c25 12 26 16 26 85 0 56 3 69 12 60 7 -7 19 -12 28 -11 10 0 9 3 -5 9 -19 8
-19 9 4 9 19 1 22 5 17 25 -4 16 -1 26 10 30 9 3 12 11 8 18 -5 8 -1 8 10 -1
15 -13 19 -13 27 0 14 22 11 49 -6 49 -8 0 -15 5 -15 10 0 6 6 10 14 10 15 0
26 21 26 51 0 10 5 19 11 19 5 0 7 5 4 10 -3 6 1 10 9 10 13 0 16 15 16 90 0
50 3 89 8 89 4 -1 18 -1 31 0 19 1 23 5 19 26 -5 22 -2 25 23 25 26 0 29 4 29
31 0 25 3 29 19 24 15 -5 21 0 26 25 l7 30 134 0 134 0 0 -31z m-2190 -178 l0
-111 -110 0 -110 0 0 108 0 107 110 3 110 4 0 -111z m3092 27 c2 -46 2 -95 0
-110 l-3 -28 -110 0 -109 0 0 105 0 104 58 4 c31 2 80 4 109 5 l52 2 3 -82z
m-662 -261 c0 -15 -6 -24 -16 -24 -10 0 -14 7 -11 18 3 10 0 20 -7 23 -6 2 -1
5 12 5 17 1 22 -5 22 -22z m-853 -223 c-3 -3 -12 -4 -19 -1 -8 3 -5 6 6 6 11
1 17 -2 13 -5z m1190 -76 c-3 -7 -5 -2 -5 12 0 14 2 19 5 13 2 -7 2 -19 0 -25z
m-3399 -10 c-2 -8 5 -12 16 -10 23 4 36 -14 36 -50 0 -31 -6 -37 -49 -40 -21
-2 -31 -7 -31 -19 0 -13 -14 -18 -75 -24 -41 -4 -75 -11 -75 -16 0 -4 7 -6 15
-3 8 4 15 1 15 -5 0 -21 -39 -11 -46 12 l-8 22 -6 -25 c-6 -21 -8 -18 -15 22
-4 26 -4 51 0 57 3 6 37 11 74 11 l69 0 -3 31 c-1 17 -8 35 -16 40 -9 6 6 9
44 9 40 0 56 -4 55 -12z m5417 2 c4 -6 3 -9 -2 -8 -9 3 -13 -5 -13 -27 0 -23
27 -18 35 8 7 20 8 19 12 -10 l4 -32 67 -3 67 -3 3 -32 c3 -27 7 -33 28 -33
13 0 24 -3 24 -7 0 -8 -63 -6 -187 4 -52 4 -63 8 -63 23 0 13 -10 20 -40 25
-22 4 -40 11 -40 16 0 5 -7 9 -15 9 -9 0 -15 9 -15 25 0 22 4 25 34 25 18 0
47 7 62 15 35 18 31 17 39 5z m-3288 -72 c-2 -13 -4 -5 -4 17 -1 22 1 32 4 23
2 -10 2 -28 0 -40z m1370 10 c-3 -7 -5 -2 -5 12 0 14 2 19 5 13 2 -7 2 -19 0
-25z m-3064 -39 c-4 -16 -8 -17 -14 -7 -13 19 -11 28 5 28 9 0 12 -7 9 -21z
m3117 13 c0 -5 -6 -16 -13 -26 -11 -16 -13 -15 -15 8 -1 17 3 26 13 26 8 0 15
-4 15 -8z m1390 -5 c0 -9 -11 -12 -37 -8 -35 4 -36 5 -13 12 39 11 50 10 50
-4z m-1462 -22 c-3 -3 -9 2 -12 12 -6 14 -5 15 5 6 7 -7 10 -15 7 -18z m-1383
-25 c-3 -5 -14 -10 -23 -10 -15 0 -15 2 -2 10 20 13 33 13 25 0z m1525 -26 c0
-2 -12 -4 -26 -4 -14 0 -23 4 -20 9 6 8 46 4 46 -5z m1170 -11 c-8 -3 -21 -10
-28 -16 -9 -7 -11 -6 -6 7 3 9 16 16 28 15 14 0 16 -2 6 -6z m-4760 -13 c0 -5
-15 -9 -32 -9 l-33 1 30 8 c17 4 31 8 33 9 1 0 2 -3 2 -9z m1690 2 c0 -5 -14
-6 -31 -4 -20 3 -34 0 -40 -9 -7 -11 -9 -10 -9 4 0 13 9 17 40 17 22 0 40 -4
40 -8z m3745 -3 c2 -2 6 -18 9 -34 3 -17 3 -24 0 -17 -3 6 -10 10 -15 6 -5 -3
-9 0 -9 5 0 6 -8 11 -17 10 -15 0 -14 -3 5 -16 31 -22 28 -30 -12 -25 -27 3
-33 8 -29 22 3 12 -2 20 -14 24 -10 2 3 4 30 3 26 -1 47 1 47 5 0 5 -20 8 -45
8 -27 0 -45 5 -45 11 0 8 15 10 45 6 26 -2 48 -6 50 -8z m-5545 -9 c0 -5 28
-11 63 -13 46 -3 42 -4 -15 -2 -65 1 -78 -1 -79 -14 0 -12 -2 -13 -6 -2 -5 11
-7 11 -14 0 -7 -12 -9 -11 -9 1 0 8 10 20 23 26 29 15 37 16 37 4z m690 -20
c0 -17 -7 -20 -39 -20 -22 0 -42 3 -45 8 -2 4 13 6 35 4 31 -3 39 -1 39 12 0
9 2 16 5 16 3 0 5 -9 5 -20z m4227 14 c-3 -3 -12 -4 -19 -1 -8 3 -5 6 6 6 11
1 17 -2 13 -5z m663 -4 c0 -5 -2 -10 -4 -10 -3 0 -8 5 -11 10 -3 6 -1 10 4 10
6 0 11 -4 11 -10z m-5650 -9 c0 -5 -7 -11 -15 -15 -9 -3 -15 0 -15 9 0 8 7 15
15 15 8 0 15 -4 15 -9z m5661 -14 c-10 -9 -11 -8 -5 6 3 10 9 15 12 12 3 -3 0
-11 -7 -18z m36 1 c-3 -8 -6 -5 -6 6 -1 11 2 17 5 13 3 -3 4 -12 1 -19z
m-3827 2 c-18 -12 -40 -13 -40 -2 0 4 12 9 28 10 21 1 23 0 12 -8z m3120 2 c0
-4 -9 -8 -20 -8 -11 0 -20 4 -20 8 0 4 9 8 20 8 11 0 20 -4 20 -8z m-4822 -9
c-16 -2 -28 -8 -28 -13 0 -21 14 -40 29 -40 12 0 13 -2 3 -9 -10 -6 -9 -10 7
-14 12 -3 21 -10 21 -16 0 -7 -30 -11 -87 -10 -49 0 -82 3 -75 6 6 2 12 13 12
24 0 10 5 19 10 19 6 0 10 -7 10 -16 0 -14 3 -14 15 -4 8 7 15 22 15 33 0 20
0 20 15 1 14 -18 14 -17 15 14 0 30 2 32 33 31 30 -2 30 -2 5 -6z m1582 -28
l0 -25 -485 0 -485 0 0 25 0 25 485 0 485 0 0 -25z m2190 5 c10 0 22 5 25 10
4 6 167 10 456 10 l449 0 0 -25 0 -25 -485 0 c-464 0 -485 1 -485 18 0 22 13
38 18 23 2 -6 12 -11 22 -11z m1577 -2 c-3 -8 -6 -5 -6 6 -1 11 2 17 5 13 3
-3 4 -12 1 -19z m95 -33 c4 -5 8 -20 8 -32 0 -22 -4 -23 -64 -23 -69 0 -85 9
-61 33 19 20 19 25 -2 29 -10 3 11 4 47 4 36 -1 68 -5 72 -11z m-5635 -47 c-3
-8 -6 -5 -6 6 -1 11 2 17 5 13 3 -3 4 -12 1 -19z m2043 -32 c0 -2 -11 -6 -25
-8 -13 -3 -22 -1 -19 3 5 9 44 13 44 5z m1826 -83 c-15 -4 -16 -7 -5 -14 11
-7 9 -9 -7 -9 -30 0 -25 26 5 27 17 0 20 -1 7 -4z m-2093 -20 c-7 -2 -19 -2
-25 0 -7 3 -2 5 12 5 14 0 19 -2 13 -5z m-1516 -13 c60 0 63 -1 48 -17 -14
-14 -18 -14 -26 -2 -7 12 -9 12 -10 -1 -1 -8 -1 -18 -1 -21 1 -4 -8 -4 -20 -1
-21 5 -21 6 -2 12 14 6 8 9 -25 15 -32 5 -46 4 -52 -6 -6 -10 -9 -7 -9 10 0
17 4 22 16 17 9 -3 45 -6 81 -6z m1528 -10 c3 -6 -1 -7 -9 -4 -18 7 -21 14 -7
14 6 0 13 -4 16 -10z m3747 -15 c6 -30 -7 -43 -16 -18 -6 15 -8 15 -16 3 -9
-13 -10 -13 -10 0 0 13 -1 13 -10 0 -6 -10 -10 -11 -10 -2 0 6 -12 12 -26 12
-14 0 -23 4 -20 9 4 5 0 12 -6 14 -7 3 15 6 48 6 58 1 62 0 66 -24z m-1352
-35 c0 -21 -19 -28 -21 -7 0 9 -2 9 -6 -1 -4 -10 -8 -10 -19 -1 -19 15 -8 29
22 29 17 0 24 -5 24 -20z m1268 13 c-10 -2 -26 -2 -35 0 -10 3 -2 5 17 5 19 0
27 -2 18 -5z m-5 -20 c-13 -2 -33 -2 -45 0 -13 2 -3 4 22 4 25 0 35 -2 23 -4z
m161 -2 c7 -11 -56 -18 -104 -11 -31 4 -29 5 20 10 30 4 60 7 67 8 6 1 14 -2
17 -7z m-5284 -14 c-3 -2 -48 -7 -100 -10 -52 -3 -89 -3 -82 2 12 7 191 16
182 8z m-210 -18 c0 -5 -5 -7 -12 -3 -8 5 -9 2 -5 -9 6 -15 -3 -17 -66 -17
-40 -1 -89 -3 -109 -6 -36 -5 -38 -4 -38 20 l0 26 115 0 c74 0 115 -4 115 -11z
m5713 -8 c3 -11 3 -21 2 -23 -2 -2 -53 -2 -114 0 -85 3 -111 6 -111 17 0 7 -6
16 -12 18 -7 3 42 6 108 6 112 1 122 0 127 -18z m-4343 -1 c0 -12 -17 -12 -45
0 -17 7 -15 9 13 9 17 1 32 -3 32 -9z m-1133 -22 c-3 -8 -6 -5 -6 6 -1 11 2
17 5 13 3 -3 4 -12 1 -19z m206 5 c-7 -2 -21 -2 -30 0 -10 3 -4 5 12 5 17 0
24 -2 18 -5z m4774 1 c-3 -3 -12 -4 -19 -1 -8 3 -5 6 6 6 11 1 17 -2 13 -5z
m-4990 -34 l6 -30 168 0 169 0 0 -30 0 -30 -175 0 -175 0 0 28 c0 21 -2 24
-10 12 -6 -10 -10 -11 -10 -2 0 9 -27 12 -100 12 -75 0 -99 -3 -97 -12 1 -10
-28 -14 -115 -16 -113 -3 -118 -2 -118 18 0 19 6 20 109 20 106 0 110 1 113
23 3 21 6 22 101 20 58 -2 97 1 97 7 0 25 31 7 37 -20z m5016 13 c-7 -2 -13
-11 -13 -19 0 -10 -12 -14 -42 -12 -36 1 -38 2 -11 5 17 2 37 11 43 19 7 8 18
14 24 13 7 0 6 -2 -1 -6z m247 -18 c0 -14 3 -24 8 -24 4 1 53 1 110 0 93 -1
102 -3 102 -20 0 -13 -10 -20 -31 -25 -39 -8 -204 5 -189 14 22 13 -20 20
-126 20 l-104 0 0 -25 0 -25 -175 0 c-144 0 -175 2 -175 14 0 8 -3 21 -6 30
-5 14 14 16 171 16 113 0 174 4 170 10 -3 5 0 16 7 24 10 12 39 15 126 16
l112 0 0 -25z m-5760 -16 l0 -32 -77 7 c-42 3 -88 6 -103 6 -19 0 -29 6 -33
19 -3 11 -3 22 0 24 2 3 51 5 108 6 l105 2 0 -32z m6240 7 c0 -14 -5 -28 -10
-31 -6 -4 -55 -3 -110 1 -85 5 -100 9 -100 24 0 9 3 20 7 23 3 4 53 7 110 7
103 0 103 0 103 -24z m-1722 -14 c2 -7 -3 -12 -12 -12 -9 0 -16 7 -16 16 0 17
22 14 28 -4z m855 11 c-7 -2 -21 -2 -30 0 -10 3 -4 5 12 5 17 0 24 -2 18 -5z
m-5633 -48 l0 -25 -115 0 -115 0 0 25 0 25 115 0 115 0 0 -25z m6764 9 c12
-31 4 -34 -109 -34 l-115 0 0 25 0 25 109 0 c90 0 110 -3 115 -16z m-7004 -68
c0 -20 -6 -25 -37 -28 -50 -6 -63 -1 -63 28 0 22 4 24 50 24 46 0 50 -2 50
-24z m7123 2 c9 -34 -24 -47 -80 -32 -16 4 -23 14 -23 30 0 22 4 24 49 24 42
0 49 -3 54 -22z m-7233 -43 c0 -24 -3 -25 -59 -25 -33 0 -61 -5 -63 -10 -4
-13 -120 -32 -130 -22 -14 14 3 42 26 42 37 0 66 12 66 26 0 11 19 14 80 14
79 0 80 0 80 -25z m7390 5 c0 -17 7 -20 50 -20 45 0 50 -2 50 -22 0 -21 -6
-23 -54 -26 -47 -2 -55 0 -61 18 -5 17 -15 20 -66 20 -56 0 -59 1 -59 25 0 24
2 25 70 25 63 0 70 -2 70 -20z m-7660 -69 c0 -5 3 -17 6 -26 6 -14 -1 -16 -46
-13 -58 3 -77 22 -38 37 30 13 78 13 78 2z m4047 -73 c-3 -8 -6 -5 -6 6 -1 11
2 17 5 13 3 -3 4 -12 1 -19z m-2734 -20 c12 -37 1 -38 -303 -38 l-297 0 5 25
4 25 293 0 c226 0 294 -3 298 -12z m2749 -33 c-6 -34 -12 -32 -12 6 0 16 4 28
9 25 4 -3 6 -17 3 -31z m-3362 -30 c0 -25 -1 -25 -85 -25 -84 0 -85 0 -85 25
0 25 1 25 85 25 84 0 85 0 85 -25z m6534 19 c9 -3 16 -15 16 -25 0 -17 -8 -19
-85 -19 -84 0 -85 0 -85 25 0 24 2 25 69 25 38 0 76 -3 85 -6z m-6744 -89 c0
-24 -3 -25 -60 -25 -57 0 -60 -1 -60 -25 0 -24 -3 -25 -55 -25 -52 0 -55 -1
-55 -25 0 -22 -4 -25 -39 -25 -52 0 -71 8 -71 31 0 16 8 19 49 19 40 0 50 4
54 19 3 15 17 21 53 26 69 9 73 11 67 34 -5 20 -1 21 56 21 58 0 61 -1 61 -25z
m6912 3 c3 -20 10 -23 61 -26 54 -3 58 -5 55 -25 -3 -19 -11 -23 -56 -27 -52
-6 -54 -5 -59 22 -5 26 -8 28 -59 28 -51 0 -54 1 -54 25 0 24 3 25 54 25 49 0
55 -2 58 -22z m331 -65 c-7 -2 -19 -2 -25 0 -7 3 -2 5 12 5 14 0 19 -2 13 -5z
m-105 -35 c-3 -20 -10 -23 -60 -26 -51 -3 -58 -1 -58 16 0 28 8 32 67 32 51 0
54 -2 51 -22z m-2030 5 c-10 -2 -28 -2 -40 0 -13 2 -5 4 17 4 22 1 32 -1 23
-4z m-3480 -10 c-16 -2 -40 -2 -55 0 -16 2 -3 4 27 4 30 0 43 -2 28 -4z m3602
1 c-36 -8 -100 -9 -100 -2 0 5 26 7 58 7 31 -1 50 -3 42 -5z m-4630 -43 l0
-28 -80 -2 c-79 -2 -80 -1 -80 23 0 27 14 32 108 35 51 1 52 0 52 -28z m5760
-7 c0 -23 -3 -24 -62 -24 -82 0 -108 8 -108 31 0 16 10 19 78 21 42 2 80 2 85
0 4 -2 7 -14 7 -28z m-6710 14 c0 -22 -14 -36 -43 -43 -25 -7 -27 -5 -27 24 0
29 3 31 35 31 21 0 35 -5 35 -12z m7560 -19 c0 -29 -1 -30 -32 -24 -61 14 -67
55 -8 55 38 0 40 -2 40 -31z m-5569 -26 c0 -11 3 -13 6 -5 7 17 20 15 20 -3 0
-8 -10 -15 -21 -16 -12 0 -32 -2 -46 -3 -14 -1 -40 -3 -57 -4 -26 -2 -33 -7
-33 -22 0 -16 -7 -20 -37 -21 -21 -1 -43 -1 -50 0 -6 1 -13 -11 -15 -26 -3
-26 -6 -28 -55 -31 -45 -3 -53 -6 -53 -23 0 -13 -6 -20 -17 -18 -52 5 -82 -1
-77 -16 4 -9 0 -15 -7 -16 -8 0 -25 -2 -39 -3 -14 -1 -37 -3 -52 -4 -17 -1
-28 -8 -28 -17 0 -12 -15 -15 -75 -15 -68 0 -75 2 -75 20 0 17 7 20 50 20 47
0 50 2 50 25 0 14 3 24 8 23 4 0 36 2 72 7 47 6 59 10 45 16 -13 5 -15 8 -5 8
8 1 21 10 28 21 12 20 52 28 52 10 0 -5 7 -10 15 -10 8 0 15 6 15 14 0 15 63
29 96 20 18 -5 20 -2 16 25 -4 30 -3 31 32 31 20 0 36 4 36 9 0 11 40 17 133
19 57 2 67 0 68 -15z m3721 1 c66 -6 67 -7 66 -35 -1 -21 -6 -29 -19 -29 -9 0
-20 6 -22 13 -3 7 -6 5 -6 -5 -1 -16 9 -18 73 -18 56 0 75 -4 80 -15 5 -15 50
-16 74 -1 7 4 12 4 11 -1 -6 -35 3 -53 26 -53 14 0 25 6 25 13 0 9 2 9 9 -1 4
-8 27 -16 49 -19 32 -4 42 -10 44 -27 2 -17 10 -21 43 -22 47 0 61 -28 23 -44
-19 -9 -15 -10 22 -6 24 3 46 10 48 15 5 14 32 14 32 1 0 -5 18 -10 40 -10 33
0 40 -3 40 -20 0 -21 5 -23 63 -20 34 1 37 -1 37 -24 0 -24 3 -26 50 -26 43 0
50 -3 50 -20 0 -27 -47 -27 -102 0 -23 11 -56 22 -75 26 -23 4 -33 12 -33 25
0 16 -8 19 -45 19 -50 0 -61 -16 -17 -25 27 -6 94 -36 90 -41 -8 -8 -123 -6
-124 2 -3 33 -18 44 -59 44 -40 0 -44 2 -47 28 -3 25 -7 27 -53 32 -36 4 -50
9 -50 20 0 11 -14 16 -57 18 -45 2 -58 7 -58 19 0 13 -9 15 -52 10 -29 -3 -47
-4 -40 -1 6 3 12 14 12 25 0 17 -8 19 -60 19 -55 0 -60 2 -66 24 -5 20 -14 25
-58 30 -46 6 -52 10 -52 29 1 20 -4 22 -66 25 -61 3 -68 5 -68 24 0 23 -8 23
222 2z m-4932 -19 c0 -24 -2 -25 -70 -25 -68 0 -70 1 -70 25 0 24 2 25 70 25
68 0 70 -1 70 -25z m6078 -2 c3 -22 0 -23 -67 -23 -69 0 -71 1 -71 25 0 26 1
26 68 23 61 -3 67 -5 70 -25z m-6228 -58 c0 -24 -2 -25 -75 -25 -73 0 -75 1
-75 25 0 24 2 25 75 25 73 0 75 -1 75 -25z m6361 15 c10 -6 19 -17 19 -25 0
-12 -15 -15 -70 -15 -68 0 -70 1 -70 25 0 23 3 25 51 25 28 0 59 -5 70 -10z
m-6523 -67 c2 -17 -3 -23 -27 -28 -17 -4 -31 -13 -31 -21 0 -9 -11 -14 -30
-14 -16 0 -33 -6 -37 -14 -10 -16 -70 -26 -70 -11 0 6 -3 23 -7 38 -6 27 -6
27 49 27 48 0 55 3 55 19 0 14 8 21 28 24 49 8 67 3 70 -20z m6672 -4 c0 -16
8 -19 55 -19 56 0 64 -7 44 -38 -17 -26 -109 -18 -117 11 -5 20 -6 20 -13 1
-7 -16 -8 -17 -8 -1 -1 11 -9 17 -25 17 -37 0 -56 10 -56 30 0 21 24 27 83 21
28 -2 37 -7 37 -22z m-2032 -2 c7 -8 7 -17 -2 -30 -18 -23 -21 -22 -21 13 -1
32 6 38 23 17z m39 -19 c-3 -8 -6 -5 -6 6 -1 11 2 17 5 13 3 -3 4 -12 1 -19z
m-4903 -34 c9 -3 16 -14 16 -24 0 -14 -10 -19 -45 -22 -41 -3 -45 -1 -45 19 0
16 7 23 28 26 15 2 28 5 29 6 1 0 8 -2 17 -5z m7074 -12 c23 -15 2 -42 -33
-42 -32 0 -52 21 -39 41 7 11 54 12 72 1z m-135 -19 c-7 -2 -19 -2 -25 0 -7 3
-2 5 12 5 14 0 19 -2 13 -5z m-5944 -39 c1 14 6 17 24 12 12 -4 35 -9 50 -13
21 -4 27 -11 25 -27 -3 -23 -4 -23 -151 -10 -63 5 -68 8 -65 27 2 18 11 23 43
25 22 2 45 8 50 13 7 7 12 1 16 -18 4 -16 7 -20 8 -9z m-1094 -14 c0 -19 -6
-26 -24 -28 -30 -5 -42 8 -34 36 4 18 12 22 32 20 20 -2 26 -8 26 -28z m7263
3 c-2 -22 -8 -28 -28 -28 -20 0 -26 6 -28 28 -3 24 0 27 28 27 28 0 31 -3 28
-27z m-6312 -23 c16 -5 55 -11 87 -13 64 -4 70 -7 62 -30 -11 -27 -89 -38 -98
-13 -7 17 -44 24 -77 16 -29 -8 -50 5 -50 31 0 22 29 25 76 9z m-1016 -25 c0
-23 -3 -25 -55 -26 -80 -3 -78 -2 -97 -22 -9 -10 -35 -21 -57 -24 -26 -4 -41
-11 -44 -23 -3 -13 -18 -19 -56 -22 -38 -4 -56 -11 -67 -27 -10 -14 -26 -21
-48 -21 -25 0 -35 -5 -39 -20 -4 -14 -14 -20 -35 -20 -16 0 -44 -3 -62 -6 -28
-6 -32 -4 -28 12 2 12 17 21 43 28 22 5 48 20 59 33 12 16 26 23 37 20 11 -3
19 0 19 8 0 16 41 32 105 40 32 5 54 14 63 26 7 10 24 19 38 19 13 0 24 5 24
11 0 27 36 38 118 39 81 0 82 0 82 -25z m3887 -17 c-3 -8 -6 -5 -6 6 -1 11 2
17 5 13 3 -3 4 -12 1 -19z m-499 5 c-10 -2 -26 -2 -35 0 -10 3 -2 5 17 5 19 0
27 -2 18 -5z m-2438 -17 c0 -20 -13 -27 -60 -29 -41 -1 -67 13 -56 32 11 17
116 14 116 -3z m96 -16 c17 0 24 -6 24 -20 0 -18 -7 -20 -55 -20 -53 0 -55 1
-55 26 0 24 3 26 31 20 17 -3 42 -6 55 -6z m5335 -7 l33 -6 -34 -13 c-19 -7
-54 -13 -77 -13 -37 -1 -43 2 -43 19 0 17 7 20 44 20 24 0 59 -3 77 -7z
m-5498 -28 c43 -8 81 -15 83 -15 2 0 4 -9 4 -20 0 -16 -6 -19 -37 -17 -36 2
-38 1 -35 -25 4 -31 -2 -33 -72 -28 -22 1 -46 8 -53 16 -17 17 -37 18 -64 4
-34 -19 -20 -30 36 -30 52 0 55 -1 55 -25 0 -22 -4 -25 -32 -25 -48 0 -78 10
-78 26 0 10 -16 14 -61 14 -51 0 -60 3 -57 17 2 9 18 21 37 26 30 7 37 5 54
-15 l18 -23 -4 33 c-3 28 0 35 20 43 12 4 37 6 54 2 29 -5 31 -4 24 15 -7 24
0 42 18 42 7 0 47 -7 90 -15z m5677 -3 c0 -10 -5 -23 -12 -30 -9 -9 1 -11 50
-6 62 7 62 7 62 -20 0 -25 2 -26 55 -26 50 0 55 -2 55 -22 0 -22 -4 -23 -56
-20 -45 3 -54 7 -49 19 4 12 2 13 -8 5 -10 -8 -16 -6 -25 9 -10 15 -22 19 -45
17 -19 -2 -31 -8 -29 -15 1 -9 -15 -13 -59 -13 -60 0 -60 0 -57 28 3 26 1 27
-35 24 -27 -2 -39 2 -43 13 -10 25 9 37 66 42 48 5 52 3 45 -14 -20 -49 -19
-53 19 -53 29 0 36 4 36 19 0 11 -9 23 -20 26 -34 11 -24 35 15 35 27 0 35 -4
35 -18z m-2113 -19 c-3 -3 -21 -1 -39 3 l-33 8 35 6 c32 5 50 -3 37 -17z
m1236 7 c22 -1 22 -1 3 -15 -25 -19 -66 -19 -66 -2 0 19 12 29 28 22 7 -3 23
-5 35 -5z m-1905 -7 l112 -6 0 -26 c0 -18 3 -22 9 -12 6 9 11 10 15 2 4 -6 17
-12 29 -12 14 -1 10 -4 -13 -10 -30 -6 -27 -7 22 -6 31 1 54 -1 52 -4 -4 -7
82 -19 137 -19 34 0 79 -29 79 -51 0 -6 5 -7 10 -4 6 4 23 1 38 -6 26 -11 27
-13 25 -93 0 -44 1 -71 4 -58 3 15 12 22 29 22 14 0 24 -6 24 -14 0 -8 3 -21
6 -29 4 -11 -1 -13 -22 -9 -18 3 -29 0 -36 -12 -5 -9 -16 -16 -24 -16 -8 0
-12 -5 -9 -10 4 -6 11 -8 16 -5 5 4 9 -3 9 -14 0 -18 -6 -21 -44 -21 -42 0
-45 -2 -56 -35 -11 -34 -20 -42 -34 -28 -10 10 -46 11 -40 1 3 -4 -6 -8 -20
-8 -14 0 -26 5 -26 10 0 6 -18 10 -39 10 -39 0 -40 -1 -43 -37 -2 -31 -7 -39
-26 -41 -17 -3 -25 2 -29 19 -6 22 -7 22 -14 3 -7 -16 -8 -17 -8 -1 -1 9 -9
17 -18 18 -12 1 -10 4 7 9 l25 8 -27 1 c-14 1 -33 4 -42 7 -13 5 -16 -2 -16
-39 0 -39 -3 -45 -23 -49 -13 -3 -32 -1 -43 3 -10 4 -13 8 -6 8 23 2 12 21
-12 21 -13 0 -27 6 -29 13 -3 6 -6 -3 -6 -21 -1 -32 -1 -32 -42 -26 -30 5 -43
3 -50 -7 -6 -10 -9 -5 -9 16 l0 30 -52 -4 -53 -5 40 -7 c39 -6 39 -6 7 -8 -24
-1 -35 -7 -42 -23 -9 -23 -9 -23 -10 2 -1 14 -1 40 0 59 l2 34 -44 -8 c-23 -5
-56 -9 -73 -9 -26 -1 -30 2 -27 21 3 20 0 22 -25 18 -73 -13 -177 -23 -184
-19 -4 2 -6 14 -4 25 5 24 -34 42 -77 35 -27 -4 -29 -2 -26 22 2 18 11 28 28
33 l25 7 -27 1 c-24 1 -28 5 -29 34 -2 30 -2 30 -6 5 -4 -23 -9 -28 -34 -28
-24 0 -29 4 -29 25 0 20 5 25 24 25 40 0 54 23 51 85 l-3 55 49 0 c27 0 49 -4
49 -10 0 -6 10 -6 27 1 15 6 42 8 60 4 30 -5 33 -4 33 20 0 14 -4 25 -10 25
-5 0 -10 -8 -10 -18 0 -15 -6 -18 -30 -14 -16 2 -30 9 -30 14 0 6 -6 8 -14 5
-9 -4 -12 0 -9 13 5 18 19 22 126 36 36 5 51 12 58 28 8 19 9 18 6 -6 -3 -19
0 -28 10 -28 8 0 11 5 8 11 -4 5 -4 22 0 36 6 24 7 24 20 7 7 -10 11 -23 8
-29 -2 -5 3 -1 11 9 14 18 16 18 16 3 0 -10 -10 -22 -22 -27 -21 -8 -20 -9 10
-9 31 -1 32 0 32 44 l0 45 108 0 c59 0 158 -3 220 -7z m-735 -20 c-7 -2 -19
-2 -25 0 -7 3 -2 5 12 5 14 0 19 -2 13 -5z m-886 -25 c-3 -8 -6 -5 -6 6 -1 11
2 17 5 13 3 -3 4 -12 1 -19z m240 -10 c3 -25 1 -28 -27 -28 -35 0 -49 22 -29
46 20 24 52 13 56 -18z m-45 -42 c3 3 9 1 13 -5 3 -6 -2 -11 -12 -11 -22 0
-46 -50 -37 -75 6 -14 3 -16 -14 -11 -32 10 -43 0 -32 -29 9 -24 8 -25 -25
-25 -35 0 -35 1 -35 43 0 38 3 44 30 54 25 9 32 9 40 -5 8 -15 9 -14 10 6 0
12 -4 22 -9 22 -23 0 -18 30 7 43 22 11 30 11 43 0 9 -7 18 -10 21 -7z m4254
-6 c31 0 44 -4 44 -14 0 -28 -109 -32 -125 -5 -9 14 5 31 22 25 8 -3 35 -6 59
-6z m-2356 -15 c0 -2 -7 -5 -15 -9 -9 -3 -15 0 -15 9 0 9 6 12 15 9 8 -4 15
-7 15 -9z m2610 -9 c0 -47 9 -56 57 -56 24 0 42 -4 39 -9 -13 -20 8 -40 53
-51 l48 -11 -2 -42 c-1 -27 -1 -30 2 -9 7 51 29 36 49 -33 7 -22 17 -31 43
-36 56 -12 111 -41 111 -59 0 -9 14 -27 30 -40 27 -21 44 -50 20 -35 -5 3 -10
1 -10 -4 0 -6 -9 -11 -20 -11 -14 0 -22 8 -26 28 -4 21 -12 28 -30 30 -14 1
-35 7 -47 14 -31 17 -49 19 -66 5 -12 -10 -14 -9 -8 6 5 13 1 17 -19 17 -23 0
-26 4 -22 25 4 21 1 25 -17 25 -20 0 -21 4 -19 58 2 51 2 53 -5 17 -5 -22 -9
-35 -10 -29 0 7 -16 15 -35 18 -28 5 -35 12 -38 34 -2 20 -11 29 -35 36 -18 5
-33 15 -33 22 0 13 -4 16 -31 18 -6 1 -27 16 -46 34 -29 27 -33 35 -23 47 7 9
29 15 51 15 35 0 39 -3 39 -24z m-6282 -3 c-2 -10 -18 -21 -36 -27 -22 -6 -32
-15 -32 -28 0 -11 -4 -16 -10 -13 -6 3 -7 -1 -4 -9 3 -9 1 -16 -5 -16 -7 0
-11 20 -11 49 0 54 4 58 68 60 27 1 33 -3 30 -16z m-108 -53 c0 -48 -1 -49
-35 -56 -30 -5 -35 -10 -35 -34 0 -25 -4 -29 -41 -35 -22 -4 -42 -5 -44 -3 -2
2 -5 17 -7 33 -3 27 0 30 32 35 19 3 36 11 36 18 1 6 2 19 3 27 1 11 13 15 40
15 35 0 38 2 33 25 -2 15 0 25 7 25 7 0 11 -20 11 -50z m230 27 c0 -22 -23
-37 -57 -37 -29 0 -33 3 -33 25 0 23 4 25 45 25 30 0 45 -4 45 -13z m560 3 c0
-5 -4 -10 -10 -10 -5 0 -10 5 -10 10 0 6 5 10 10 10 6 0 10 -4 10 -10z m5470
-15 c0 -23 -4 -25 -45 -25 -41 0 -45 2 -45 25 0 23 4 25 45 25 41 0 45 -2 45
-25z m-6583 -61 c-3 -3 -12 -4 -19 -1 -8 3 -5 6 6 6 11 1 17 -2 13 -5z m2053
-79 c0 -52 -1 -55 -25 -55 -18 0 -26 -7 -31 -25 -5 -20 -12 -25 -38 -25 -19 0
-33 -5 -34 -12 -14 -125 -13 -120 -43 -116 -29 4 -29 4 -29 -45 0 -46 -2 -49
-23 -45 -20 4 -22 1 -19 -29 4 -30 2 -33 -22 -33 -24 0 -26 -3 -26 -46 l0 -45
-35 5 c-28 5 -35 3 -35 -11 0 -9 -5 -32 -12 -50 -10 -28 -17 -33 -38 -31 -19
2 -26 10 -28 32 -3 26 -1 28 21 22 22 -5 25 -2 31 34 6 36 9 40 36 40 27 0 30
3 30 34 0 49 11 94 24 99 6 3 -2 3 -19 1 -25 -3 -27 -2 -12 7 10 6 31 7 47 4
l30 -7 0 51 0 51 35 0 c34 0 35 1 35 40 0 28 4 40 15 40 18 0 37 34 29 54 -5
12 0 16 19 16 14 0 28 7 31 16 10 27 7 64 -6 65 -21 2 34 17 65 18 26 1 27 0
27 -54z m-1900 8 c0 -16 3 -38 6 -50 5 -17 1 -22 -18 -25 -17 -2 -22 -9 -21
-24 2 -19 -4 -23 -55 -29 -31 -4 -65 -14 -74 -22 -10 -9 -24 -13 -33 -10 -10
5 -15 0 -15 -14 0 -15 -5 -19 -16 -15 -9 3 -12 2 -9 -5 9 -14 -14 -39 -35 -39
-11 0 -17 -7 -16 -17 0 -12 -7 -19 -22 -21 -12 -2 -27 -12 -32 -23 -6 -10 -17
-19 -25 -19 -8 0 -15 -4 -15 -10 0 -5 -9 -10 -20 -10 -11 0 -20 3 -20 6 0 13
113 113 121 108 5 -3 9 1 9 8 1 20 36 58 54 58 9 0 20 10 25 23 14 36 44 56
89 58 26 2 42 8 42 16 0 7 7 10 15 7 12 -5 15 3 15 35 0 37 2 41 25 41 21 0
25 -5 25 -27z m-90 -3 c0 -5 -2 -10 -4 -10 -3 0 -8 5 -11 10 -3 6 -1 10 4 10
6 0 11 -4 11 -10z m812 -135 c11 -15 2 -18 -21 -5 -20 10 -21 8 -21 -26 0 -39
-1 -39 -73 -18 -13 4 -20 -1 -24 -15 -3 -14 -13 -21 -29 -21 -13 0 -24 -5 -24
-11 0 -5 -4 -7 -10 -4 -5 3 -10 24 -10 45 l0 39 68 3 c65 3 67 4 70 31 l3 27
32 -17 c18 -10 35 -22 39 -28z m502 7 c-1 -7 -2 -30 -2 -51 -2 -35 -5 -40 -29
-43 -22 -2 -28 -8 -28 -28 0 -23 -4 -24 -43 -22 -43 4 -60 -14 -19 -20 21 -4
21 -5 -5 -18 -18 -9 -28 -21 -28 -36 0 -18 -6 -23 -32 -26 -25 -2 -34 -8 -36
-25 -2 -13 -10 -23 -18 -23 -10 0 -14 13 -14 49 0 53 12 65 58 56 12 -2 20 0
17 4 -3 5 -2 23 1 40 5 25 13 33 35 38 20 4 29 11 29 25 0 16 5 19 21 15 15
-4 19 -2 15 9 -3 8 1 14 9 14 7 0 16 -8 18 -17 3 -11 5 -7 6 10 1 36 19 69 34
64 7 -2 12 -9 11 -15z m3759 -107 c17 -35 17 -35 -8 -35 -13 0 -26 4 -29 9 -4
5 3 7 14 4 16 -4 19 -2 14 13 -4 11 -14 25 -22 32 -14 10 -14 12 -1 12 9 0 23
-16 32 -35z m144 29 c-3 -3 -12 -4 -19 -1 -8 3 -5 6 6 6 11 1 17 -2 13 -5z
m2019 -94 c26 0 9 -25 -19 -28 -18 -2 -29 2 -33 12 -3 9 -12 16 -19 16 -8 0
-27 17 -44 37 -27 33 -29 38 -13 49 14 10 24 5 65 -37 26 -27 55 -49 63 -49z
m-3439 68 c-3 -8 -6 -5 -6 6 -1 11 2 17 5 13 3 -3 4 -12 1 -19z m-3203 0 c19
-59 17 -68 -12 -68 -32 0 -52 -16 -52 -43 0 -10 -4 -16 -9 -13 -5 3 -12 -1
-15 -10 -4 -9 -13 -14 -21 -10 -13 4 -13 2 -5 -14 9 -18 8 -20 -15 -20 -14 0
-25 5 -25 11 0 5 -4 7 -10 4 -5 -3 -10 -17 -10 -30 0 -18 -7 -25 -30 -30 -19
-4 -30 -13 -30 -23 -1 -16 -2 -15 -14 1 -7 9 -18 17 -25 17 -15 0 -14 9 4 26
8 9 19 12 25 9 9 -6 15 8 11 29 -3 14 21 26 52 26 25 0 33 11 28 42 0 4 15 12
34 18 27 9 35 17 35 35 0 26 21 46 28 27 2 -7 8 -12 13 -12 6 0 7 5 3 11 -3 6
0 15 7 20 19 12 29 11 33 -3z m1356 -18 c0 -13 -6 -20 -17 -19 -11 0 -13 3 -5
6 6 2 12 11 12 19 0 8 2 14 5 14 3 0 5 -9 5 -20z m1927 14 c-3 -3 -12 -4 -19
-1 -8 3 -5 6 6 6 11 1 17 -2 13 -5z m-2227 -29 c0 -9 -6 -12 -15 -9 -8 4 -12
10 -9 15 8 14 24 10 24 -6z m250 0 c-7 -9 -15 -13 -19 -10 -3 3 1 10 9 15 21
14 24 12 10 -5z m-833 -167 c15 -17 14 -18 -5 -18 -51 0 -71 38 -34 66 15 11
17 10 20 -9 2 -12 11 -30 19 -39z m650 -30 c-2 -13 -4 -5 -4 17 -1 22 1 32 4
23 2 -10 2 -28 0 -40z m4927 44 c-6 -4 -14 -14 -17 -22 -4 -10 -6 -8 -6 8 -1
15 5 22 17 22 10 0 13 -3 6 -8z m-4867 -44 c-3 -8 -6 -5 -6 6 -1 11 2 17 5 13
3 -3 4 -12 1 -19z m4214 -8 c15 0 19 -7 19 -34 0 -33 2 -35 38 -38 24 -2 37
-8 38 -18 1 -8 2 -27 2 -41 2 -18 9 -28 23 -32 20 -5 20 -7 5 -22 -27 -28 -21
-48 14 -41 l30 6 -6 -42 -7 -41 24 16 c34 24 37 22 41 -25 3 -39 6 -43 31 -46
23 -3 28 -8 24 -23 -3 -10 1 -22 8 -27 14 -8 36 -77 27 -86 -17 -18 -52 16
-52 50 0 21 -3 24 -26 18 -25 -6 -26 -5 -22 24 4 27 1 33 -24 41 -18 7 -28 17
-28 30 0 12 -4 21 -9 21 -6 0 -16 12 -23 27 -7 15 -24 30 -38 33 -23 5 -25 10
-26 69 -2 70 -2 69 -32 74 -42 6 -62 36 -61 91 1 28 3 43 6 34 2 -10 13 -18
24 -18z m-4971 -15 c0 -25 -4 -35 -16 -35 -9 0 -18 9 -21 20 -4 16 -8 18 -19
9 -8 -6 -14 -18 -14 -26 0 -8 -4 -11 -10 -8 -6 4 -10 -8 -10 -28 0 -36 -12
-47 -54 -47 -22 0 -23 -3 -18 -50 4 -45 3 -50 -16 -50 -15 0 -24 -10 -32 -35
-13 -39 -50 -51 -50 -16 0 11 -3 26 -6 35 -4 10 2 17 19 21 23 6 26 13 32 76
7 66 8 69 34 69 48 0 71 11 71 33 0 32 40 66 78 66 30 1 32 -1 32 -34z m820
21 c0 -3 -4 -8 -10 -11 -5 -3 -10 -1 -10 4 0 6 5 11 10 11 6 0 10 -2 10 -4z
m-75 -16 c3 -5 -1 -10 -10 -10 -9 0 -13 5 -10 10 3 6 8 10 10 10 2 0 7 -4 10
-10z m4212 -132 c-3 -8 -6 -5 -6 6 -1 11 2 17 5 13 3 -3 4 -12 1 -19z m-3217
-113 c0 -8 -7 -15 -15 -15 -8 0 -15 7 -15 15 0 8 7 15 15 15 8 0 15 -7 15 -15z
m1420 5 c0 -5 -4 -10 -10 -10 -5 0 -10 5 -10 10 0 6 5 10 10 10 6 0 10 -4 10
-10z m-3437 -37 c3 -5 8 -23 12 -40 6 -31 5 -33 -19 -33 -19 0 -27 6 -32 25
-8 34 24 73 39 48z m-39 -83 c14 -5 26 -16 26 -25 0 -18 -31 -20 -48 -3 -9 9
-12 9 -12 -3 0 -8 6 -21 13 -28 10 -10 8 -15 -8 -27 -10 -8 -24 -13 -30 -11
-10 4 -10 12 -1 67 3 14 5 28 5 33 1 10 25 9 55 -3z m1189 -7 c-7 -2 -19 -2
-25 0 -7 3 -2 5 12 5 14 0 19 -2 13 -5z m1079 -32 c6 -68 6 -105 -2 -124 -7
-16 -9 -18 -9 -5 -1 11 -8 16 -21 13 -18 -4 -20 2 -20 64 0 37 3 70 6 73 10
11 44 -4 46 -21z m1032 -49 c0 -63 -2 -67 -23 -67 -22 0 -23 4 -25 68 -1 65 0
67 24 67 24 0 25 -2 24 -68z m-944 8 c0 -5 -4 -10 -8 -10 -5 0 -9 -7 -9 -15 0
-21 35 -19 39 3 3 9 8 -2 12 -24 7 -42 8 -42 45 -37 38 5 39 5 43 -30 3 -26 0
-33 -10 -30 -8 3 -15 -3 -19 -16 -7 -26 -16 -27 -34 -3 -13 15 -12 16 4 3 11
-9 17 -10 17 -2 0 13 -36 51 -49 51 -5 0 -17 3 -27 7 -12 4 -15 3 -10 -5 5 -8
-1 -12 -18 -12 -25 0 -26 2 -26 65 0 63 1 65 25 65 14 0 25 -4 25 -10z m-2430
-19 c15 -29 12 -41 -10 -41 -23 0 -35 22 -26 45 8 21 23 19 36 -4z m5712 -78
c8 -10 5 -13 -11 -13 -16 0 -21 6 -21 28 0 36 14 51 18 20 2 -12 9 -29 14 -35z
m-5742 6 c0 -12 -7 -19 -19 -19 -17 0 -18 3 -8 24 13 27 27 25 27 -5z m2688
14 c-18 -4 -25 -23 -10 -23 14 0 10 -29 -5 -34 -9 -4 -13 5 -13 29 0 30 3 35
23 34 16 -1 18 -2 5 -6z m512 -25 c0 -7 3 -24 6 -38 4 -20 3 -22 -5 -10 -10
13 -11 13 -11 0 0 -13 -1 -13 -10 0 -6 10 -10 11 -10 3 0 -7 -7 -13 -15 -13
-8 0 -15 9 -15 19 0 11 -3 26 -6 35 -5 13 1 16 30 16 22 0 36 -5 36 -12z
m1075 -218 c-3 -5 0 -10 8 -10 8 0 17 -7 21 -15 3 -9 0 -15 -9 -15 -8 0 -15 6
-15 13 0 9 -2 9 -9 -1 -7 -11 -10 -10 -15 3 -10 26 -7 35 10 35 8 0 12 -4 9
-10z m-2818 -46 c-3 -3 -12 -4 -19 -1 -8 3 -5 6 6 6 11 1 17 -2 13 -5z m133
-275 c0 -6 -4 -7 -10 -4 -5 3 -10 11 -10 16 0 6 5 7 10 4 6 -3 10 -11 10 -16z"/>
<path d="M7210 9084 c0 -8 5 -12 10 -9 6 3 10 10 10 16 0 5 -4 9 -10 9 -5 0
-10 -7 -10 -16z"/>
<path d="M6787 8508 c-4 -13 0 -18 14 -18 10 0 19 4 19 9 0 5 7 12 16 15 8 3
12 2 9 -4 -3 -5 3 -14 14 -19 17 -10 18 -9 7 14 -14 31 -72 33 -79 3z"/>
<path d="M6870 8508 c0 -6 7 -8 15 -4 8 3 18 -1 22 -9 7 -12 11 -11 20 4 11
17 9 19 -23 19 -18 0 -34 -5 -34 -10z"/>
<path d="M7043 8483 c9 -2 23 -2 30 0 6 3 -1 5 -18 5 -16 0 -22 -2 -12 -5z"/>
<path d="M6480 8249 c-22 -8 -21 -8 8 -4 19 3 31 1 27 -4 -3 -5 -1 -12 5 -16
5 -3 10 3 10 14 0 22 -10 24 -50 10z"/>
<path d="M6240 8150 c0 -5 5 -10 11 -10 5 0 7 5 4 10 -3 6 -8 10 -11 10 -2 0
-4 -4 -4 -10z"/>
<path d="M5677 8058 c-17 -11 6 -31 29 -25 15 4 14 5 -6 7 -16 2 -9 5 20 9
l45 7 -38 5 c-20 3 -43 2 -50 -3z"/>
<path d="M6302 8010 c0 -14 2 -19 5 -12 2 6 2 18 0 25 -3 6 -5 1 -5 -13z"/>
<path d="M6563 7883 c9 -2 23 -2 30 0 6 3 -1 5 -18 5 -16 0 -22 -2 -12 -5z"/>
<path d="M6378 7863 c7 -3 16 -2 19 1 4 3 -2 6 -13 5 -11 0 -14 -3 -6 -6z"/>
<path d="M6772 7835 c0 -16 2 -22 5 -12 2 9 2 23 0 30 -3 6 -5 -1 -5 -18z"/>
<path d="M6448 7843 c7 -3 16 -2 19 1 4 3 -2 6 -13 5 -11 0 -14 -3 -6 -6z"/>
<path d="M6593 7733 c9 -2 23 -2 30 0 6 3 -1 5 -18 5 -16 0 -22 -2 -12 -5z"/>
<path d="M6822 7700 c0 -14 2 -19 5 -12 2 6 2 18 0 25 -3 6 -5 1 -5 -13z"/>
<path d="M6773 7663 c9 -2 23 -2 30 0 6 3 -1 5 -18 5 -16 0 -22 -2 -12 -5z"/>
<path d="M6710 7445 c0 -8 5 -15 10 -15 6 0 10 7 10 15 0 8 -4 15 -10 15 -5 0
-10 -7 -10 -15z"/>
<path d="M6913 7343 c15 -2 37 -2 50 0 12 2 0 4 -28 4 -27 0 -38 -2 -22 -4z"/>
<path d="M6854 7229 c-3 -5 16 -9 42 -9 26 0 45 2 43 5 -9 9 -80 12 -85 4z"/>
<path d="M6850 7175 c0 -26 4 -35 16 -35 12 0 14 3 6 13 -6 7 -9 23 -5 35 3
13 1 22 -6 22 -6 0 -11 -16 -11 -35z"/>
<path d="M6937 7203 c-4 -3 -7 -13 -7 -22 1 -13 3 -13 11 2 11 19 8 33 -4 20z"/>
<path d="M1481 9074 c0 -11 3 -14 6 -6 3 7 2 16 -1 19 -3 4 -6 -2 -5 -13z"/>
<path d="M1475 9040 c3 -5 8 -10 11 -10 2 0 4 5 4 10 0 6 -5 10 -11 10 -5 0
-7 -4 -4 -10z"/>
<path d="M1723 8883 c9 -2 23 -2 30 0 6 3 -1 5 -18 5 -16 0 -22 -2 -12 -5z"/>
<path d="M1676 8507 c3 -8 24 -14 49 -16 35 -1 45 2 45 14 0 11 -12 15 -50 15
-37 0 -48 -3 -44 -13z"/>
<path d="M1953 8433 c15 -2 37 -2 50 0 12 2 0 4 -28 4 -27 0 -38 -2 -22 -4z"/>
<path d="M1882 8338 c-3 -31 -2 -31 18 -13 25 22 26 45 2 45 -13 0 -18 -9 -20
-32z"/>
<path d="M2050 8215 c0 -8 4 -15 8 -15 5 0 9 7 9 15 0 8 -4 15 -9 15 -4 0 -8
-7 -8 -15z"/>
<path d="M1722 8085 c0 -16 2 -22 5 -12 2 9 2 23 0 30 -3 6 -5 -1 -5 -18z"/>
<path d="M2878 8073 c12 -2 30 -2 40 0 9 3 -1 5 -23 4 -22 0 -30 -2 -17 -4z"/>
<path d="M1668 8053 c6 -2 18 -2 25 0 6 3 1 5 -13 5 -14 0 -19 -2 -12 -5z"/>
<path d="M2063 8033 c9 -2 23 -2 30 0 6 3 -1 5 -18 5 -16 0 -22 -2 -12 -5z"/>
<path d="M2260 7886 c0 -2 9 -6 20 -9 11 -3 20 -1 20 4 0 5 -9 9 -20 9 -11 0
-20 -2 -20 -4z"/>
<path d="M1837 7703 c-4 -3 -7 -18 -7 -33 0 -19 5 -26 21 -26 19 0 19 1 3 13
-10 7 -13 13 -7 13 6 0 13 9 16 20 5 19 -12 28 -26 13z"/>
<path d="M1753 7643 c15 -2 37 -2 50 0 12 2 0 4 -28 4 -27 0 -38 -2 -22 -4z"/>
<path d="M1992 7590 c0 -19 2 -27 5 -17 2 9 2 25 0 35 -3 9 -5 1 -5 -18z"/>
<path d="M1568 7553 c6 -2 18 -2 25 0 6 3 1 5 -13 5 -14 0 -19 -2 -12 -5z"/>
<path d="M1528 7308 c-4 -9 3 -14 21 -15 14 -1 19 1 11 4 -8 3 -18 10 -21 15
-3 5 -9 3 -11 -4z"/>
<path d="M2370 6830 c0 -5 5 -10 10 -10 6 0 10 5 10 10 0 6 -4 10 -10 10 -5 0
-10 -4 -10 -10z"/>
<path d="M2545 6670 c-3 -5 -1 -10 4 -10 6 0 11 5 11 10 0 6 -2 10 -4 10 -3 0
-8 -4 -11 -10z"/>
<path d="M5856 6525 c-3 -8 -1 -15 4 -15 6 0 10 7 10 15 0 8 -2 15 -4 15 -2 0
-6 -7 -10 -15z"/>
<path d="M2865 6350 c3 -5 13 -10 21 -10 8 0 14 5 14 10 0 6 -9 10 -21 10 -11
0 -17 -4 -14 -10z"/>
<path d="M5210 6330 c-9 -6 -10 -10 -3 -10 6 0 15 5 18 10 8 12 4 12 -15 0z"/>
<path d="M3370 6167 c0 -8 7 -17 15 -21 8 -3 15 -3 15 0 0 3 -7 12 -15 20 -13
13 -15 13 -15 1z"/>
<path d="M3385 6121 c-3 -5 -1 -12 5 -16 5 -3 10 1 10 9 0 18 -6 21 -15 7z"/>
<path d="M4278 6093 c6 -2 18 -2 25 0 6 3 1 5 -13 5 -14 0 -19 -2 -12 -5z"/>
<path d="M6001 6084 c0 -11 3 -14 6 -6 3 7 2 16 -1 19 -3 4 -6 -2 -5 -13z"/>
<path d="M4292 6073 c-6 -2 -10 -9 -6 -14 3 -5 0 -9 -5 -9 -6 0 -11 -4 -11
-10 0 -5 9 -10 20 -10 15 0 20 7 20 25 0 14 -1 25 -2 24 -2 0 -9 -3 -16 -6z"/>
<path d="M5463 5983 c9 -2 23 -2 30 0 6 3 -1 5 -18 5 -16 0 -22 -2 -12 -5z"/>
<path d="M5190 5935 c0 -30 3 -35 24 -35 20 0 24 4 21 25 -1 15 4 29 14 35 12
7 7 9 -21 10 -37 0 -38 -1 -38 -35z"/>
<path d="M5266 5948 c-8 -43 -5 -138 5 -138 8 0 15 52 9 75 -2 6 -3 27 -2 48
0 41 -5 49 -12 15z"/>
<path d="M5290 5959 c0 -5 5 -7 10 -4 6 3 10 8 10 11 0 2 -4 4 -10 4 -5 0 -10
-5 -10 -11z"/>
<path d="M3047 5933 c-3 -5 1 -14 8 -20 11 -10 13 -9 12 7 -1 20 -12 26 -20
13z"/>
<path d="M3308 5913 c7 -3 16 -2 19 1 4 3 -2 6 -13 5 -11 0 -14 -3 -6 -6z"/>
<path d="M5522 5900 c0 -14 2 -19 5 -12 2 6 2 18 0 25 -3 6 -5 1 -5 -13z"/>
<path d="M5578 5913 c7 -3 16 -2 19 1 4 3 -2 6 -13 5 -11 0 -14 -3 -6 -6z"/>
<path d="M2911 5874 c0 -11 3 -14 6 -6 3 7 2 16 -1 19 -3 4 -6 -2 -5 -13z"/>
<path d="M4451 5853 c0 -29 2 -33 8 -18 7 18 4 55 -5 55 -2 0 -4 -17 -3 -37z"/>
<path d="M5592 5855 c0 -16 2 -22 5 -12 2 9 2 23 0 30 -3 6 -5 -1 -5 -18z"/>
<path d="M5779 5871 c8 -5 11 -16 8 -25 -4 -9 -2 -16 3 -16 6 0 10 11 10 25 0
17 -5 25 -17 25 -15 0 -15 -2 -4 -9z"/>
<path d="M5925 5840 c-18 -8 -17 -9 8 -9 16 -1 26 3 22 9 -3 6 -7 10 -8 9 -1
0 -11 -4 -22 -9z"/>
<path d="M5510 5790 c0 -5 5 -10 11 -10 5 0 7 5 4 10 -3 6 -8 10 -11 10 -2 0
-4 -4 -4 -10z"/>
<path d="M3552 5720 c0 -14 2 -19 5 -12 2 6 2 18 0 25 -3 6 -5 1 -5 -13z"/>
<path d="M5020 5659 c0 -36 4 -49 13 -46 7 2 12 22 12 50 0 31 -4 47 -12 47
-9 0 -13 -17 -13 -51z"/>
<path d="M2388 5683 c6 -2 18 -2 25 0 6 3 1 5 -13 5 -14 0 -19 -2 -12 -5z"/>
<path d="M5061 5654 c0 -11 3 -14 6 -6 3 7 2 16 -1 19 -3 4 -6 -2 -5 -13z"/>
<path d="M2478 5653 c12 -2 30 -2 40 0 9 3 -1 5 -23 4 -22 0 -30 -2 -17 -4z"/>
<path d="M2268 5633 c7 -3 16 -2 19 1 4 3 -2 6 -13 5 -11 0 -14 -3 -6 -6z"/>
<path d="M2310 5588 c0 -12 7 -18 23 -17 15 0 17 2 7 6 -8 3 -18 11 -22 17 -5
7 -8 4 -8 -6z"/>
<path d="M4441 5504 c0 -11 3 -14 6 -6 3 7 2 16 -1 19 -3 4 -6 -2 -5 -13z"/>
<path d="M2070 5485 c0 -8 6 -15 14 -15 22 0 28 17 10 24 -22 9 -24 8 -24 -9z"/>
<path d="M6453 5493 c9 -2 25 -2 35 0 9 3 1 5 -18 5 -19 0 -27 -2 -17 -5z"/>
<path d="M6470 5444 c0 -16 9 -18 28 -5 10 6 9 10 -7 14 -14 3 -21 0 -21 -9z"/>
<path d="M3510 5410 c0 -5 4 -10 9 -10 6 0 13 5 16 10 3 6 -1 10 -9 10 -9 0
-16 -4 -16 -10z"/>
<path d="M3328 5370 c2 -16 7 -28 11 -25 11 6 6 48 -6 52 -5 2 -8 -9 -5 -27z"/>
<path d="M4691 5244 c0 -11 3 -14 6 -6 3 7 2 16 -1 19 -3 4 -6 -2 -5 -13z"/>
<path d="M2098 5253 c7 -3 16 -2 19 1 4 3 -2 6 -13 5 -11 0 -14 -3 -6 -6z"/>
<path d="M2563 5253 c9 -2 25 -2 35 0 9 3 1 5 -18 5 -19 0 -27 -2 -17 -5z"/>
<path d="M2688 5253 c17 -2 47 -2 65 0 17 2 3 4 -33 4 -36 0 -50 -2 -32 -4z"/>
<path d="M2905 5250 c50 -4 99 -3 110 1 11 4 -29 7 -90 7 l-110 -1 90 -7z"/>
<path d="M2548 5228 c-8 -4 4 -8 30 -8 23 0 42 2 42 4 0 8 -60 12 -72 4z"/>
<path d="M2678 5223 c12 -2 32 -2 45 0 12 2 2 4 -23 4 -25 0 -35 -2 -22 -4z"/>
<path d="M5828 5253 c6 -2 18 -2 25 0 6 3 1 5 -13 5 -14 0 -19 -2 -12 -5z"/>
<path d="M5673 5223 c15 -2 37 -2 50 0 12 2 0 4 -28 4 -27 0 -38 -2 -22 -4z"/>
<path d="M4017 4513 c-4 -3 -7 -27 -7 -51 0 -56 6 -52 14 11 7 47 5 53 -7 40z"/>
<path d="M4705 4100 c4 -6 11 -8 16 -5 14 9 11 15 -7 15 -8 0 -12 -5 -9 -10z"/>
<path d="M4895 3770 c-8 -13 -1 -24 14 -19 6 3 7 10 2 18 -6 10 -10 10 -16 1z"/>
<path d="M3835 3380 c-3 -6 1 -7 9 -4 18 7 21 14 7 14 -6 0 -13 -4 -16 -10z"/>
<path d="M3750 3260 l0 -90 33 0 c21 0 28 -3 19 -9 -11 -7 -11 -9 2 -14 9 -4
16 -13 16 -22 0 -11 11 -15 45 -15 40 0 45 -3 45 -22 0 -51 11 -68 44 -69 30
-1 30 -1 6 -9 -23 -7 -23 -8 -3 -9 33 -1 39 -21 7 -21 -55 0 -16 -8 74 -14
l92 -8 0 71 c0 59 -3 72 -21 84 -20 14 -20 16 -2 26 10 6 14 11 9 11 -5 0 -18
-7 -28 -17 -17 -15 -18 -15 -18 9 0 24 -4 26 -62 31 -124 11 -168 27 -168 60
0 12 -9 31 -21 41 -15 12 -20 26 -17 47 4 26 2 29 -24 29 l-28 0 0 -90z"/>
<path d="M4781 3134 c0 -11 3 -14 6 -6 3 7 2 16 -1 19 -3 4 -6 -2 -5 -13z"/>
<path d="M4660 3096 c0 -9 30 -14 35 -6 4 6 -3 10 -14 10 -12 0 -21 -2 -21 -4z"/>
<path d="M4710 3069 c0 -35 8 -35 15 -1 2 12 0 24 -6 27 -5 4 -9 -8 -9 -26z"/>
<path d="M4141 3044 c0 -11 3 -14 6 -6 3 7 2 16 -1 19 -3 4 -6 -2 -5 -13z"/>
<path d="M5985 3020 c-38 -4 -107 -8 -153 -9 -53 -1 -81 -5 -77 -11 4 -6 70
-10 166 -10 152 0 159 1 159 20 0 11 -6 19 -12 18 -7 0 -44 -4 -83 -8z"/>
<path d="M2578 3013 c23 -2 61 -2 85 0 23 2 4 4 -43 4 -47 0 -66 -2 -42 -4z"/>
<path d="M2736 3009 c2 -4 -4 -10 -13 -12 -10 -2 -4 -3 12 -1 146 16 168 17
160 4 -6 -9 -4 -11 6 -4 8 4 26 7 41 5 16 -1 28 2 28 9 0 8 -35 11 -120 9 -65
-1 -117 -6 -114 -10z"/>
<path d="M4152 2972 c-8 -6 -2 -9 18 -9 16 0 30 4 30 9 0 10 -31 10 -48 0z"/>
<path d="M5748 2683 c6 -2 18 -2 25 0 6 3 1 5 -13 5 -14 0 -19 -2 -12 -5z"/>
<path d="M5808 2683 c7 -3 16 -2 19 1 4 3 -2 6 -13 5 -11 0 -14 -3 -6 -6z"/>
<path d="M2805 2660 c3 -5 8 -10 11 -10 2 0 4 5 4 10 0 6 -5 10 -11 10 -5 0
-7 -4 -4 -10z"/>
<path d="M5441 2573 c0 -6 -4 -18 -7 -27 -5 -13 1 -16 32 -15 29 2 32 3 12 6
-18 3 -28 12 -31 26 -2 12 -5 17 -6 10z"/>
<path d="M5468 2573 c7 -3 16 -2 19 1 4 3 -2 6 -13 5 -11 0 -14 -3 -6 -6z"/>
<path d="M2753 2553 c9 -2 23 -2 30 0 6 3 -1 5 -18 5 -16 0 -22 -2 -12 -5z"/>
<path d="M4060 2435 c0 -8 4 -15 9 -15 5 0 11 7 15 15 3 9 0 15 -9 15 -8 0
-15 -7 -15 -15z"/>
<path d="M3162 2403 c18 -3 25 -9 21 -19 -3 -10 2 -14 18 -14 18 0 20 3 10 9
-7 5 -10 14 -7 20 5 7 -5 11 -31 10 -29 -2 -32 -3 -11 -6z"/>
<path d="M4645 2400 c-3 -5 -1 -10 4 -10 6 0 11 5 11 10 0 6 -2 10 -4 10 -3 0
-8 -4 -11 -10z"/>
<path d="M2891 2374 c0 -11 3 -14 6 -6 3 7 2 16 -1 19 -3 4 -6 -2 -5 -13z"/>
<path d="M5701 2364 c0 -11 3 -14 6 -6 3 7 2 16 -1 19 -3 4 -6 -2 -5 -13z"/>
<path d="M2872 2320 c0 -14 2 -19 5 -12 2 6 2 18 0 25 -3 6 -5 1 -5 -13z"/>
<path d="M5296 2318 c2 -3 -4 -9 -13 -11 -10 -3 8 -5 40 -6 39 -1 57 3 57 12
0 8 -15 12 -44 12 -24 0 -42 -3 -40 -7z"/>
<path d="M3130 2310 c0 -6 7 -10 15 -10 8 0 15 2 15 4 0 2 -7 6 -15 10 -8 3
-15 1 -15 -4z"/>
<path d="M5413 2313 c9 -2 25 -2 35 0 9 3 1 5 -18 5 -19 0 -27 -2 -17 -5z"/>
<path d="M6271 2304 c0 -11 3 -14 6 -6 3 7 2 16 -1 19 -3 4 -6 -2 -5 -13z"/>
<path d="M3110 2297 c0 -8 19 -21 45 -29 39 -13 45 -13 45 -1 0 8 -4 12 -9 8
-5 -3 -12 -1 -16 4 -3 6 -12 8 -19 5 -7 -3 -21 2 -30 11 -13 14 -16 14 -16 2z"/>
<path d="M6238 2293 c7 -3 16 -2 19 1 4 3 -2 6 -13 5 -11 0 -14 -3 -6 -6z"/>
<path d="M3300 2260 c0 -5 5 -10 11 -10 5 0 7 5 4 10 -3 6 -8 10 -11 10 -2 0
-4 -4 -4 -10z"/>
<path d="M5884 2201 c10 -16 46 -20 46 -5 0 8 -10 14 -26 14 -14 0 -23 -4 -20
-9z"/>
<path d="M2658 2193 c7 -3 16 -2 19 1 4 3 -2 6 -13 5 -11 0 -14 -3 -6 -6z"/>
<path d="M1925 2080 c3 -5 10 -10 16 -10 5 0 9 5 9 10 0 6 -7 10 -16 10 -8 0
-12 -4 -9 -10z"/>
<path d="M6150 2039 c0 -5 5 -7 10 -4 6 3 10 8 10 11 0 2 -4 4 -10 4 -5 0 -10
-5 -10 -11z"/>
<path d="M6180 1989 c0 -5 5 -7 10 -4 6 3 10 8 10 11 0 2 -4 4 -10 4 -5 0 -10
-5 -10 -11z"/>
<path d="M6228 1953 c6 -2 18 -2 25 0 6 3 1 5 -13 5 -14 0 -19 -2 -12 -5z"/>
<path d="M2285 1930 c3 -5 8 -10 11 -10 2 0 4 5 4 10 0 6 -5 10 -11 10 -5 0
-7 -4 -4 -10z"/>
<path d="M5780 1920 c0 -5 5 -10 10 -10 6 0 10 5 10 10 0 6 -4 10 -10 10 -5 0
-10 -4 -10 -10z"/>
<path d="M6825 1920 c-3 -5 -1 -10 4 -10 6 0 11 5 11 10 0 6 -2 10 -4 10 -3 0
-8 -4 -11 -10z"/>
<path d="M2290 1906 c0 -2 7 -6 15 -10 8 -3 15 -1 15 4 0 6 -7 10 -15 10 -8 0
-15 -2 -15 -4z"/>
<path d="M6510 1669 c0 -5 5 -7 10 -4 6 3 10 8 10 11 0 2 -4 4 -10 4 -5 0 -10
-5 -10 -11z"/>
<path d="M7191 1654 c0 -11 3 -14 6 -6 3 7 2 16 -1 19 -3 4 -6 -2 -5 -13z"/>
<path d="M6035 1580 c-3 -5 -1 -10 4 -10 6 0 11 5 11 10 0 6 -2 10 -4 10 -3 0
-8 -4 -11 -10z"/>
<path d="M6689 1513 c-13 -16 -12 -17 4 -4 9 7 17 15 17 17 0 8 -8 3 -21 -13z"/>
<path d="M1600 3625 c0 -8 4 -15 10 -15 5 0 7 7 4 15 -4 8 -8 15 -10 15 -2 0
-4 -7 -4 -15z"/>
<path d="M2256 3675 c-3 -10 1 -15 12 -15 31 0 62 12 56 21 -9 15 -61 10 -68
-6z"/>
<path d="M7068 3233 c7 -3 16 -2 19 1 4 3 -2 6 -13 5 -11 0 -14 -3 -6 -6z"/>
<path d="M833 2443 c9 -2 23 -2 30 0 6 3 -1 5 -18 5 -16 0 -22 -2 -12 -5z"/>
<path d="M1433 2232 c-25 -4 -39 -30 -19 -38 8 -3 29 -4 47 -2 l34 3 -20 20
c-11 12 -30 19 -42 17z"/>
<path d="M4591 2120 c0 -8 4 -22 9 -30 12 -18 12 -2 0 25 -6 13 -9 15 -9 5z"/>
<path d="M7436 2068 c3 -5 10 -6 15 -3 13 9 11 12 -6 12 -8 0 -12 -4 -9 -9z"/>
<path d="M7601 1957 c-13 -21 -12 -21 5 -5 10 10 16 20 13 22 -3 3 -11 -5 -18
-17z"/>
<path d="M7748 1823 c7 -3 16 -2 19 1 4 3 -2 6 -13 5 -11 0 -14 -3 -6 -6z"/>
<path d="M2770 1938 c0 -13 5 -30 10 -38 7 -11 10 -7 10 17 0 17 -4 35 -10 38
-6 3 -10 -4 -10 -17z"/>
<path d="M1930 1589 c7 -11 14 -18 17 -15 8 8 -5 36 -17 36 -7 0 -7 -6 0 -21z"/>
<path d="M5980 1389 c0 -11 5 -17 10 -14 6 3 10 13 10 21 0 8 -4 14 -10 14 -5
0 -10 -9 -10 -21z"/>
<path d="M5910 1259 c0 -5 11 -9 25 -9 14 0 25 4 25 9 0 5 -11 9 -25 9 -14 0
-25 -4 -25 -9z"/>
<path d="M3108 403 c6 -2 18 -2 25 0 6 3 1 5 -13 5 -14 0 -19 -2 -12 -5z"/>
<path d="M5450 384 c0 -8 5 -12 10 -9 6 4 8 11 5 16 -9 14 -15 11 -15 -7z"/>
<path d="M3228 193 c6 -2 18 -2 25 0 6 3 1 5 -13 5 -14 0 -19 -2 -12 -5z"/>
<path d="M5200 160 c0 -5 9 -10 19 -10 11 0 23 5 26 10 4 6 -5 10 -19 10 -14
0 -26 -4 -26 -10z"/>
<path d="M3290 130 c0 -11 4 -20 9 -20 5 0 7 9 4 20 -3 11 -7 20 -9 20 -2 0
-4 -9 -4 -20z"/>
</g>
</svg>
